<?xml version="1.0" encoding="utf-8"?>
<!-- Generator: Adobe Illustrator 22.1.0, SVG Export Plug-In . SVG Version: 6.00 Build 0)  -->
<svg version="1.1" xmlns="http://www.w3.org/2000/svg" xmlns:xlink="http://www.w3.org/1999/xlink" x="0px" y="0px"
	 viewBox="0 0 800 340" style="enable-background:new 0 0 800 340;" xml:space="preserve">
<style type="text/css">
	.st0{opacity:0.1;fill:#95AFD0;}
	.st1{opacity:0.1;fill:#00AFE6;}
	.st2{fill:#F5F5F5;}
	.st3{fill:#DADCE1;}
	.st4{fill:#28323C;}
	.st5{fill:url(#SVGID_1_);}
	.st6{fill:#22619F;}
</style>
<g id="Artwork">
	<rect y="30" class="st0" width="615" height="312"/>
	<rect x="615" y="48" class="st1" width="185" height="294"/>
	<path class="st2" d="M800,25H0V8c0-4.4,3.6-8,8-8h792V25z"/>
	<circle class="st3" cx="19" cy="13" r="4"/>
	<circle class="st3" cx="33" cy="13" r="4"/>
	<circle class="st3" cx="47" cy="13" r="4"/>
	<path class="st1" d="M761,140H654c-5.5,0-10-4.5-10-10v0c0-5.5,4.5-10,10-10h107c5.5,0,10,4.5,10,10v0C771,135.5,766.5,140,761,140
		z"/>
	<path class="st1" d="M761,190H654c-5.5,0-10-4.5-10-10v0c0-5.5,4.5-10,10-10h107c5.5,0,10,4.5,10,10v0C771,185.5,766.5,190,761,190
		z"/>
	<rect y="25" class="st4" width="800" height="25"/>
</g>
<g id="Gradient">
	<linearGradient id="SVGID_1_" gradientUnits="userSpaceOnUse" x1="399" y1="169" x2="399" y2="340">
		<stop  offset="0" style="stop-color:#FFFFFF;stop-opacity:0"/>
		<stop  offset="1" style="stop-color:#FFFFFF"/>
	</linearGradient>
	<rect x="-3" y="169" class="st5" width="804" height="171"/>
	<g>
		<path class="st6" d="M60.9,128.6c-0.5,0.2-1.1,0.4-1.8,0.4c-1,0-1.7-0.3-2.3-0.9s-0.9-1.4-0.9-2.3s0.3-1.7,0.9-2.3
			s1.3-0.9,2.3-0.9c0.6,0,1.2,0.1,1.8,0.3l-0.2,0.8c-0.6-0.2-1.1-0.3-1.5-0.3c-0.7,0-1.2,0.2-1.6,0.7s-0.6,1-0.6,1.8
			c0,0.7,0.2,1.3,0.6,1.7s0.9,0.7,1.6,0.7c0.5,0,1-0.1,1.6-0.3L60.9,128.6z"/>
		<path class="st6" d="M68.2,128.8h-0.9v-0.9c-0.7,0.7-1.3,1-2.1,1c-1.1,0-1.7-0.7-1.7-2.1v-4.2h0.9v3.9c0,0.5,0.1,0.9,0.2,1.2
			s0.4,0.4,0.8,0.4c0.6,0,1.2-0.3,1.8-1v-4.4h0.9V128.8z"/>
		<path class="st6" d="M75.5,122.8l-0.4,0.9c-0.4-0.2-0.8-0.3-1-0.3c-0.3,0-0.5,0.1-0.8,0.2s-0.5,0.4-0.7,0.7s-0.3,0.4-0.3,0.5v3.9
			h-0.9v-6.1h0.9v1.2c0.5-0.9,1.1-1.4,1.9-1.4C74.6,122.5,75,122.6,75.5,122.8z"/>
		<path class="st6" d="M82.1,128.8h-2.5v-7.5H78v-0.8h2.5v7.5h1.6V128.8z"/>
		<path class="st6" d="M97,128.8h-0.9v-3.9c0-0.5-0.1-0.9-0.3-1.2s-0.4-0.4-0.8-0.4c-0.6,0-1.2,0.3-1.8,1v4.4h-0.9v-8.3h0.9v3.1
			c0.7-0.7,1.3-1,2.1-1c1.1,0,1.7,0.7,1.7,2.1V128.8z"/>
		<path class="st6" d="M104.2,128.5c-0.6,0.3-1.2,0.4-1.8,0.4c-1.1,0-1.6-0.6-1.6-1.7v-3.7h-1.2v-0.8h1.2V121h0.9v1.7h2.1v0.8h-2.1
			v3.5c0,0.4,0.1,0.7,0.2,0.9s0.4,0.3,0.7,0.3c0.5,0,1-0.1,1.5-0.3L104.2,128.5z"/>
		<path class="st6" d="M111.4,128.5c-0.6,0.3-1.2,0.4-1.8,0.4c-1.1,0-1.6-0.6-1.6-1.7v-3.7h-1.2v-0.8h1.2V121h0.9v1.7h2.1v0.8h-2.1
			v3.5c0,0.4,0.1,0.7,0.2,0.9s0.4,0.3,0.7,0.3c0.5,0,1-0.1,1.5-0.3L111.4,128.5z"/>
		<path class="st6" d="M114.8,123.4c0.2-0.3,0.5-0.5,0.8-0.7s0.7-0.3,1.1-0.3c0.7,0,1.3,0.3,1.7,0.9s0.6,1.3,0.6,2.3
			c0,0.9-0.2,1.7-0.6,2.3s-1,0.9-1.7,0.9c-0.4,0-0.7-0.1-1.1-0.3s-0.6-0.4-0.8-0.8v3.3h-0.9v-8.5h0.9V123.4z M114.8,124.4v2.5
			c0.2,0.3,0.4,0.6,0.7,0.9s0.6,0.3,0.9,0.3c0.5,0,0.9-0.2,1.2-0.7s0.4-1,0.4-1.7c0-0.7-0.1-1.3-0.4-1.7s-0.7-0.7-1.2-0.7
			C115.8,123.3,115.2,123.6,114.8,124.4z"/>
		<path class="st6" d="M125.1,123.5c-0.5-0.2-1-0.3-1.4-0.3c-0.5,0-0.9,0.1-1.2,0.2s-0.4,0.4-0.4,0.7c0,0.2,0.1,0.3,0.2,0.5
			s0.4,0.3,0.8,0.4l0.9,0.3c0.4,0.1,0.7,0.2,1,0.4s0.4,0.3,0.6,0.6s0.2,0.5,0.2,0.8c0,0.6-0.2,1-0.7,1.4s-1.1,0.5-1.9,0.5
			c-0.8,0-1.4-0.1-1.9-0.3l0.2-0.8c0.5,0.2,1.1,0.4,1.6,0.4c0.5,0,0.9-0.1,1.2-0.3s0.5-0.4,0.5-0.8c0-0.2-0.1-0.4-0.2-0.6
			s-0.5-0.3-1.1-0.5c-0.5-0.1-0.8-0.3-1-0.3s-0.4-0.2-0.6-0.3s-0.3-0.3-0.4-0.5s-0.1-0.4-0.1-0.7c0-0.5,0.2-0.9,0.7-1.3
			s1.1-0.5,1.8-0.5c0.5,0,1,0.1,1.6,0.3L125.1,123.5z"/>
		<path class="st6" d="M130.6,122.6c0.2,0,0.4,0.1,0.5,0.2s0.2,0.3,0.2,0.5s-0.1,0.4-0.2,0.5s-0.3,0.2-0.5,0.2
			c-0.2,0-0.4-0.1-0.5-0.2s-0.2-0.3-0.2-0.5s0.1-0.4,0.2-0.5S130.4,122.6,130.6,122.6z M130.6,127.5c0.2,0,0.4,0.1,0.5,0.2
			s0.2,0.3,0.2,0.5c0,0.2-0.1,0.4-0.2,0.5s-0.3,0.2-0.5,0.2c-0.2,0-0.4-0.1-0.5-0.2s-0.2-0.3-0.2-0.5c0-0.2,0.1-0.4,0.2-0.5
			S130.4,127.5,130.6,127.5z"/>
		<path class="st6" d="M139.9,120.3l-3.6,8.6h-0.9l3.6-8.6H139.9z"/>
		<path class="st6" d="M147.1,120.3l-3.6,8.6h-0.9l3.6-8.6H147.1z"/>
		<path class="st6" d="M154.9,122.7l-2.3,6.1c-0.3,0.9-0.7,1.5-1,1.9s-0.7,0.5-1.1,0.5c-0.4,0-0.7-0.1-1.1-0.2l0.2-0.7
			c0.3,0.1,0.6,0.1,0.8,0.1c0.3,0,0.6-0.1,0.8-0.4s0.4-0.7,0.6-1.2l-2.3-6.1h1l1.7,4.9l1.7-4.9H154.9z"/>
		<path class="st6" d="M159.4,122.5c0.8,0,1.5,0.3,2,0.9s0.7,1.4,0.7,2.3c0,1-0.2,1.7-0.7,2.3s-1.2,0.9-2,0.9c-0.8,0-1.5-0.3-2-0.9
			s-0.7-1.4-0.7-2.3c0-1,0.2-1.7,0.7-2.3S158.6,122.5,159.4,122.5z M159.4,128.1c0.6,0,1-0.2,1.3-0.7s0.5-1,0.5-1.7
			c0-0.7-0.2-1.3-0.5-1.7s-0.8-0.7-1.3-0.7c-0.6,0-1,0.2-1.3,0.7s-0.5,1-0.5,1.7c0,0.7,0.2,1.3,0.5,1.7S158.9,128.1,159.4,128.1z"/>
		<path class="st6" d="M169,128.8h-0.9v-0.9c-0.7,0.7-1.3,1-2.1,1c-1.1,0-1.7-0.7-1.7-2.1v-4.2h0.9v3.9c0,0.5,0.1,0.9,0.2,1.2
			s0.4,0.4,0.8,0.4c0.6,0,1.2-0.3,1.8-1v-4.4h0.9V128.8z"/>
		<path class="st6" d="M176.3,122.8l-0.4,0.9c-0.4-0.2-0.8-0.3-1-0.3c-0.3,0-0.5,0.1-0.8,0.2s-0.5,0.4-0.7,0.7s-0.3,0.4-0.3,0.5v3.9
			h-0.9v-6.1h0.9v1.2c0.5-0.9,1.1-1.4,1.9-1.4C175.4,122.5,175.8,122.6,176.3,122.8z"/>
		<path class="st6" d="M183.4,128.6c-0.5,0.2-1.1,0.4-1.8,0.4c-1,0-1.7-0.3-2.3-0.9s-0.9-1.4-0.9-2.3s0.3-1.7,0.9-2.3
			s1.3-0.9,2.3-0.9c0.6,0,1.2,0.1,1.8,0.3l-0.2,0.8c-0.6-0.2-1.1-0.3-1.5-0.3c-0.7,0-1.2,0.2-1.6,0.7s-0.6,1-0.6,1.8
			c0,0.7,0.2,1.3,0.6,1.7s0.9,0.7,1.6,0.7c0.5,0,1-0.1,1.6-0.3L183.4,128.6z"/>
		<path class="st6" d="M188.2,122.5c0.8,0,1.5,0.3,2,0.9s0.7,1.4,0.7,2.3c0,1-0.2,1.7-0.7,2.3s-1.2,0.9-2,0.9c-0.8,0-1.5-0.3-2-0.9
			s-0.7-1.4-0.7-2.3c0-1,0.2-1.7,0.7-2.3S187.4,122.5,188.2,122.5z M188.2,128.1c0.6,0,1-0.2,1.3-0.7s0.5-1,0.5-1.7
			c0-0.7-0.2-1.3-0.5-1.7s-0.8-0.7-1.3-0.7c-0.6,0-1,0.2-1.3,0.7s-0.5,1-0.5,1.7c0,0.7,0.2,1.3,0.5,1.7S187.7,128.1,188.2,128.1z"/>
		<path class="st6" d="M198.3,128.8h-0.9v-4c0-1-0.2-1.5-0.5-1.5c-0.2,0-0.4,0.2-0.6,0.5s-0.3,0.5-0.3,0.6v4.4H195v-4
			c0-1-0.2-1.5-0.5-1.5c-0.2,0-0.4,0.2-0.6,0.5s-0.3,0.5-0.3,0.6v4.4h-0.9v-6.1h0.9v0.9c0.2-0.3,0.4-0.6,0.6-0.8s0.5-0.3,0.7-0.3
			c0.2,0,0.5,0.1,0.7,0.3s0.3,0.5,0.4,0.8c0.2-0.3,0.4-0.6,0.6-0.8s0.5-0.3,0.7-0.3c0.7,0,1.1,0.7,1.1,2V128.8z"/>
		<path class="st6" d="M201.2,123.4c0.2-0.3,0.5-0.5,0.8-0.7s0.7-0.3,1.1-0.3c0.7,0,1.3,0.3,1.7,0.9s0.6,1.3,0.6,2.3
			c0,0.9-0.2,1.7-0.6,2.3s-1,0.9-1.7,0.9c-0.4,0-0.7-0.1-1.1-0.3s-0.6-0.4-0.8-0.8v3.3h-0.9v-8.5h0.9V123.4z M201.2,124.4v2.5
			c0.2,0.3,0.4,0.6,0.7,0.9s0.6,0.3,0.9,0.3c0.5,0,0.9-0.2,1.2-0.7s0.4-1,0.4-1.7c0-0.7-0.1-1.3-0.4-1.7s-0.7-0.7-1.2-0.7
			C202.2,123.3,201.6,123.6,201.2,124.4z"/>
		<path class="st6" d="M212.3,128.8h-0.9c-0.1-0.2-0.1-0.6-0.1-1c-0.5,0.8-1.2,1.1-2.1,1.1c-0.5,0-0.9-0.2-1.2-0.5s-0.5-0.7-0.5-1.2
			c0-0.3,0.1-0.6,0.2-0.8s0.3-0.4,0.5-0.6s0.5-0.3,0.9-0.4s0.7-0.2,1.2-0.2l1-0.1v-0.3c0-1-0.5-1.6-1.5-1.6c-0.2,0-0.5,0-0.9,0.1
			s-0.7,0.2-0.9,0.4l-0.2-0.7c0.8-0.4,1.6-0.6,2.3-0.6c1.4,0,2.1,0.7,2.1,2.2v2.6C212.2,127.9,212.2,128.3,212.3,128.8z
			 M211.3,126.9v-1.1c-0.8,0.1-1.4,0.1-1.7,0.2s-0.6,0.2-0.8,0.4s-0.3,0.4-0.3,0.7c0,0.3,0.1,0.5,0.3,0.7s0.4,0.3,0.7,0.3
			c0.3,0,0.6-0.1,1-0.3S211,127.3,211.3,126.9z"/>
		<path class="st6" d="M219.4,128.8h-0.9v-3.9c0-0.5-0.1-0.9-0.3-1.2s-0.4-0.4-0.8-0.4c-0.6,0-1.2,0.3-1.8,1v4.4h-0.9v-6.1h0.9v0.9
			c0.7-0.7,1.3-1,2.1-1c1.1,0,1.7,0.7,1.7,2.1V128.8z"/>
		<path class="st6" d="M226.9,122.7l-2.3,6.1c-0.3,0.9-0.7,1.5-1,1.9s-0.7,0.5-1.1,0.5c-0.4,0-0.7-0.1-1.1-0.2l0.2-0.7
			c0.3,0.1,0.6,0.1,0.8,0.1c0.3,0,0.6-0.1,0.8-0.4s0.4-0.7,0.6-1.2l-2.3-6.1h1l1.7,4.9l1.7-4.9H226.9z"/>
		<path class="st6" d="M231.4,127.4c0.2,0,0.4,0.1,0.5,0.2s0.2,0.3,0.2,0.5c0,0.2-0.1,0.4-0.2,0.5s-0.3,0.2-0.5,0.2
			c-0.2,0-0.4-0.1-0.5-0.2s-0.2-0.3-0.2-0.5s0.1-0.4,0.2-0.5S231.2,127.4,231.4,127.4z"/>
		<path class="st6" d="M241,128.8h-0.9v-0.9c-0.7,0.7-1.3,1-2.1,1c-1.1,0-1.7-0.7-1.7-2.1v-4.2h0.9v3.9c0,0.5,0.1,0.9,0.2,1.2
			s0.4,0.4,0.8,0.4c0.6,0,1.2-0.3,1.8-1v-4.4h0.9V128.8z"/>
		<path class="st6" d="M247.6,123.5c-0.5-0.2-1-0.3-1.4-0.3c-0.5,0-0.9,0.1-1.2,0.2s-0.4,0.4-0.4,0.7c0,0.2,0.1,0.3,0.2,0.5
			s0.4,0.3,0.8,0.4l0.9,0.3c0.4,0.1,0.7,0.2,1,0.4s0.4,0.3,0.6,0.6s0.2,0.5,0.2,0.8c0,0.6-0.2,1-0.7,1.4s-1.1,0.5-1.9,0.5
			c-0.8,0-1.4-0.1-1.9-0.3l0.2-0.8c0.5,0.2,1.1,0.4,1.6,0.4c0.5,0,0.9-0.1,1.2-0.3s0.5-0.4,0.5-0.8c0-0.2-0.1-0.4-0.2-0.6
			s-0.5-0.3-1.1-0.5c-0.5-0.1-0.8-0.3-1-0.3s-0.4-0.2-0.6-0.3s-0.3-0.3-0.4-0.5s-0.1-0.4-0.1-0.7c0-0.5,0.2-0.9,0.7-1.3
			s1.1-0.5,1.8-0.5c0.5,0,1,0.1,1.6,0.3L247.6,123.5z"/>
		<path class="st6" d="M255.6,125.7h-4.2c0,0.7,0.2,1.3,0.6,1.7s0.9,0.7,1.5,0.7c0.6,0,1.1-0.1,1.7-0.3l0.2,0.7
			c-0.5,0.2-1.2,0.4-1.9,0.4c-0.9,0-1.6-0.3-2.2-0.9s-0.8-1.4-0.8-2.4c0-1,0.2-1.7,0.7-2.3s1.1-0.9,1.9-0.9c0.7,0,1.3,0.3,1.8,0.8
			s0.7,1.2,0.7,2.1V125.7z M254.6,125c0-0.5-0.1-0.9-0.4-1.2s-0.6-0.5-1-0.5c-0.5,0-0.9,0.2-1.2,0.5s-0.5,0.7-0.5,1.2H254.6z"/>
		<path class="st6" d="M262.7,122.8l-0.4,0.9c-0.4-0.2-0.8-0.3-1-0.3c-0.3,0-0.5,0.1-0.8,0.2s-0.5,0.4-0.7,0.7s-0.3,0.4-0.3,0.5v3.9
			h-0.9v-6.1h0.9v1.2c0.5-0.9,1.1-1.4,1.9-1.4C261.8,122.5,262.3,122.6,262.7,122.8z"/>
		<path class="st6" d="M270.1,122.7l-2.3,6.1h-0.8l-2.3-6.1h1l1.7,4.9l1.7-4.9H270.1z"/>
		<path class="st6" d="M274.6,122.5c0.8,0,1.5,0.3,2,0.9s0.7,1.4,0.7,2.3c0,1-0.2,1.7-0.7,2.3s-1.2,0.9-2,0.9c-0.8,0-1.5-0.3-2-0.9
			s-0.7-1.4-0.7-2.3c0-1,0.2-1.7,0.7-2.3S273.8,122.5,274.6,122.5z M274.6,128.1c0.6,0,1-0.2,1.3-0.7s0.5-1,0.5-1.7
			c0-0.7-0.2-1.3-0.5-1.7s-0.8-0.7-1.3-0.7c-0.6,0-1,0.2-1.3,0.7s-0.5,1-0.5,1.7c0,0.7,0.2,1.3,0.5,1.7S274.1,128.1,274.6,128.1z"/>
		<path class="st6" d="M282.7,128.8h-0.9v-5.3H280v-0.8h2.7V128.8z M282.2,120.3c0.2,0,0.3,0.1,0.4,0.2s0.2,0.3,0.2,0.4
			c0,0.2-0.1,0.3-0.2,0.5s-0.3,0.2-0.4,0.2c-0.2,0-0.3-0.1-0.4-0.2s-0.2-0.3-0.2-0.4s0.1-0.3,0.2-0.4S282.1,120.3,282.2,120.3z"/>
		<path class="st6" d="M291.4,128.6c-0.5,0.2-1.1,0.4-1.8,0.4c-1,0-1.7-0.3-2.3-0.9s-0.9-1.4-0.9-2.3s0.3-1.7,0.9-2.3
			s1.3-0.9,2.3-0.9c0.6,0,1.2,0.1,1.8,0.3l-0.2,0.8c-0.6-0.2-1.1-0.3-1.5-0.3c-0.7,0-1.2,0.2-1.6,0.7s-0.6,1-0.6,1.8
			c0,0.7,0.2,1.3,0.6,1.7s0.9,0.7,1.6,0.7c0.5,0,1-0.1,1.6-0.3L291.4,128.6z"/>
		<path class="st6" d="M298.8,125.7h-4.2c0,0.7,0.2,1.3,0.6,1.7s0.9,0.7,1.5,0.7c0.6,0,1.1-0.1,1.7-0.3l0.2,0.7
			c-0.5,0.2-1.2,0.4-1.9,0.4c-0.9,0-1.6-0.3-2.2-0.9s-0.8-1.4-0.8-2.4c0-1,0.2-1.7,0.7-2.3s1.1-0.9,1.9-0.9c0.7,0,1.3,0.3,1.8,0.8
			s0.7,1.2,0.7,2.1V125.7z M297.8,125c0-0.5-0.1-0.9-0.4-1.2s-0.6-0.5-1-0.5c-0.5,0-0.9,0.2-1.2,0.5s-0.5,0.7-0.5,1.2H297.8z"/>
		<path class="st6" d="M303.4,127.4c0.2,0,0.4,0.1,0.5,0.2s0.2,0.3,0.2,0.5c0,0.2-0.1,0.4-0.2,0.5s-0.3,0.2-0.5,0.2
			c-0.2,0-0.4-0.1-0.5-0.2s-0.2-0.3-0.2-0.5s0.1-0.4,0.2-0.5S303.2,127.4,303.4,127.4z"/>
		<path class="st6" d="M313,128.6c-0.5,0.2-1.1,0.4-1.8,0.4c-1,0-1.7-0.3-2.3-0.9s-0.9-1.4-0.9-2.3s0.3-1.7,0.9-2.3s1.3-0.9,2.3-0.9
			c0.6,0,1.2,0.1,1.8,0.3l-0.2,0.8c-0.6-0.2-1.1-0.3-1.5-0.3c-0.7,0-1.2,0.2-1.6,0.7s-0.6,1-0.6,1.8c0,0.7,0.2,1.3,0.6,1.7
			s0.9,0.7,1.6,0.7c0.5,0,1-0.1,1.6-0.3L313,128.6z"/>
		<path class="st6" d="M317.8,122.5c0.8,0,1.5,0.3,2,0.9s0.7,1.4,0.7,2.3c0,1-0.2,1.7-0.7,2.3s-1.2,0.9-2,0.9c-0.8,0-1.5-0.3-2-0.9
			s-0.7-1.4-0.7-2.3c0-1,0.2-1.7,0.7-2.3S317,122.5,317.8,122.5z M317.8,128.1c0.6,0,1-0.2,1.3-0.7s0.5-1,0.5-1.7
			c0-0.7-0.2-1.3-0.5-1.7s-0.8-0.7-1.3-0.7c-0.6,0-1,0.2-1.3,0.7s-0.5,1-0.5,1.7c0,0.7,0.2,1.3,0.5,1.7S317.3,128.1,317.8,128.1z"/>
		<path class="st6" d="M327.9,128.8H327v-4c0-1-0.2-1.5-0.5-1.5c-0.2,0-0.4,0.2-0.6,0.5s-0.3,0.5-0.3,0.6v4.4h-0.9v-4
			c0-1-0.2-1.5-0.5-1.5c-0.2,0-0.4,0.2-0.6,0.5s-0.3,0.5-0.3,0.6v4.4h-0.9v-6.1h0.9v0.9c0.2-0.3,0.4-0.6,0.6-0.8s0.5-0.3,0.7-0.3
			c0.2,0,0.5,0.1,0.7,0.3s0.3,0.5,0.4,0.8c0.2-0.3,0.4-0.6,0.6-0.8s0.5-0.3,0.7-0.3c0.7,0,1.1,0.7,1.1,2V128.8z"/>
		<path class="st6" d="M334.4,120.3l-3.6,8.6h-0.9l3.6-8.6H334.4z"/>
		<path class="st6" d="M342,128.8h-0.9c-0.1-0.2-0.1-0.6-0.1-1c-0.5,0.8-1.2,1.1-2.1,1.1c-0.5,0-0.9-0.2-1.2-0.5s-0.5-0.7-0.5-1.2
			c0-0.3,0.1-0.6,0.2-0.8s0.3-0.4,0.5-0.6s0.5-0.3,0.9-0.4s0.7-0.2,1.2-0.2l1-0.1v-0.3c0-1-0.5-1.6-1.5-1.6c-0.2,0-0.5,0-0.9,0.1
			s-0.7,0.2-0.9,0.4l-0.2-0.7c0.8-0.4,1.6-0.6,2.3-0.6c1.4,0,2.1,0.7,2.1,2.2v2.6C341.8,127.9,341.9,128.3,342,128.8z M340.9,126.9
			v-1.1c-0.8,0.1-1.4,0.1-1.7,0.2s-0.6,0.2-0.8,0.4s-0.3,0.4-0.3,0.7c0,0.3,0.1,0.5,0.3,0.7s0.4,0.3,0.7,0.3c0.3,0,0.6-0.1,1-0.3
			S340.7,127.3,340.9,126.9z"/>
		<path class="st6" d="M345.2,123.4c0.2-0.3,0.5-0.5,0.8-0.7s0.7-0.3,1.1-0.3c0.7,0,1.3,0.3,1.7,0.9s0.6,1.3,0.6,2.3
			c0,0.9-0.2,1.7-0.6,2.3s-1,0.9-1.7,0.9c-0.4,0-0.7-0.1-1.1-0.3s-0.6-0.4-0.8-0.8v3.3h-0.9v-8.5h0.9V123.4z M345.2,124.4v2.5
			c0.2,0.3,0.4,0.6,0.7,0.9s0.6,0.3,0.9,0.3c0.5,0,0.9-0.2,1.2-0.7s0.4-1,0.4-1.7c0-0.7-0.1-1.3-0.4-1.7s-0.7-0.7-1.2-0.7
			C346.2,123.3,345.7,123.6,345.2,124.4z"/>
		<path class="st6" d="M354.7,128.8h-0.9v-5.3H352v-0.8h2.7V128.8z M354.2,120.3c0.2,0,0.3,0.1,0.4,0.2s0.2,0.3,0.2,0.4
			c0,0.2-0.1,0.3-0.2,0.5s-0.3,0.2-0.4,0.2c-0.2,0-0.3-0.1-0.4-0.2s-0.2-0.3-0.2-0.4s0.1-0.3,0.2-0.4S354.1,120.3,354.2,120.3z"/>
		<path class="st6" d="M363.2,120.3l-3.6,8.6h-0.9l3.6-8.6H363.2z"/>
		<path class="st6" d="M370.9,122.7l-2.3,6.1h-0.8l-2.3-6.1h1l1.7,4.9l1.7-4.9H370.9z"/>
		<path class="st6" d="M377.6,128.8h-4.5v-0.7c1.2-1.3,1.9-2.1,2.2-2.6s0.6-0.9,0.8-1.4s0.3-1,0.3-1.4c0-0.5-0.1-0.8-0.4-1.1
			s-0.7-0.4-1.2-0.4c-0.4,0-0.9,0.1-1.6,0.4l-0.1-0.8c0.6-0.2,1.2-0.4,1.9-0.4c0.7,0,1.3,0.2,1.8,0.6s0.7,1,0.7,1.7
			c0,0.5-0.1,1-0.3,1.5s-0.5,1-0.9,1.4s-1.1,1.3-2.1,2.4h3.5V128.8z"/>
		<path class="st6" d="M384.8,120.3l-3.6,8.6h-0.9l3.6-8.6H384.8z"/>
		<path class="st6" d="M392.4,128.8h-0.9c-0.1-0.2-0.1-0.6-0.1-1c-0.5,0.8-1.2,1.1-2.1,1.1c-0.5,0-0.9-0.2-1.2-0.5s-0.5-0.7-0.5-1.2
			c0-0.3,0.1-0.6,0.2-0.8s0.3-0.4,0.5-0.6s0.5-0.3,0.9-0.4s0.7-0.2,1.2-0.2l1-0.1v-0.3c0-1-0.5-1.6-1.5-1.6c-0.2,0-0.5,0-0.9,0.1
			s-0.7,0.2-0.9,0.4l-0.2-0.7c0.8-0.4,1.6-0.6,2.3-0.6c1.4,0,2.1,0.7,2.1,2.2v2.6C392.2,127.9,392.3,128.3,392.4,128.8z
			 M391.3,126.9v-1.1c-0.8,0.1-1.4,0.1-1.7,0.2s-0.6,0.2-0.8,0.4s-0.3,0.4-0.3,0.7c0,0.3,0.1,0.5,0.3,0.7s0.4,0.3,0.7,0.3
			c0.3,0,0.6-0.1,1-0.3S391.1,127.3,391.3,126.9z"/>
		<path class="st6" d="M399.4,128.8h-0.9v-0.9c-0.2,0.3-0.5,0.5-0.8,0.7s-0.7,0.3-1.1,0.3c-0.7,0-1.3-0.3-1.7-0.9s-0.6-1.4-0.6-2.4
			c0-0.9,0.2-1.6,0.6-2.2s1-0.9,1.7-0.9c0.8,0,1.4,0.3,1.9,0.9v-3h0.9V128.8z M398.5,126.9v-2.5c-0.4-0.7-1-1.1-1.6-1.1
			c-0.5,0-0.9,0.2-1.2,0.7s-0.4,1-0.4,1.7c0,0.7,0.1,1.3,0.4,1.7s0.7,0.7,1.1,0.7c0.2,0,0.5-0.1,0.7-0.2s0.5-0.3,0.7-0.6
			S398.5,126.9,398.5,126.9z"/>
		<path class="st6" d="M407.1,128.8h-0.9v-4c0-1-0.2-1.5-0.5-1.5c-0.2,0-0.4,0.2-0.6,0.5s-0.3,0.5-0.3,0.6v4.4h-0.9v-4
			c0-1-0.2-1.5-0.5-1.5c-0.2,0-0.4,0.2-0.6,0.5s-0.3,0.5-0.3,0.6v4.4h-0.9v-6.1h0.9v0.9c0.2-0.3,0.4-0.6,0.6-0.8s0.5-0.3,0.7-0.3
			c0.2,0,0.5,0.1,0.7,0.3s0.3,0.5,0.4,0.8c0.2-0.3,0.4-0.6,0.6-0.8s0.5-0.3,0.7-0.3c0.7,0,1.1,0.7,1.1,2V128.8z"/>
		<path class="st6" d="M412.3,128.8h-0.9v-5.3h-1.8v-0.8h2.7V128.8z M411.9,120.3c0.2,0,0.3,0.1,0.4,0.2s0.2,0.3,0.2,0.4
			c0,0.2-0.1,0.3-0.2,0.5s-0.3,0.2-0.4,0.2c-0.2,0-0.3-0.1-0.4-0.2s-0.2-0.3-0.2-0.4s0.1-0.3,0.2-0.4S411.7,120.3,411.9,120.3z"/>
		<path class="st6" d="M421,128.8h-0.9v-3.9c0-0.5-0.1-0.9-0.3-1.2s-0.4-0.4-0.8-0.4c-0.6,0-1.2,0.3-1.8,1v4.4h-0.9v-6.1h0.9v0.9
			c0.7-0.7,1.3-1,2.1-1c1.1,0,1.7,0.7,1.7,2.1V128.8z"/>
		<path class="st6" d="M428,120.3l-3.6,8.6h-0.9l3.6-8.6H428z"/>
		<path class="st6" d="M435.5,120.6l-0.2,0.7c-0.4-0.1-0.8-0.2-1.2-0.2c-0.3,0-0.6,0.1-0.7,0.3s-0.2,0.6-0.2,1.1v0.1h2.1v0.8h-2.1
			v5.3h-0.9v-5.3h-1.5v-0.8h1.5v-0.2c0-0.8,0.1-1.3,0.4-1.6s0.7-0.5,1.4-0.5C434.5,120.3,435,120.4,435.5,120.6z"/>
		<path class="st6" d="M442.8,125.7h-4.2c0,0.7,0.2,1.3,0.6,1.7s0.9,0.7,1.5,0.7c0.6,0,1.1-0.1,1.7-0.3l0.2,0.7
			c-0.5,0.2-1.2,0.4-1.9,0.4c-0.9,0-1.6-0.3-2.2-0.9s-0.8-1.4-0.8-2.4c0-1,0.2-1.7,0.7-2.3s1.1-0.9,1.9-0.9c0.7,0,1.3,0.3,1.8,0.8
			s0.7,1.2,0.7,2.1V125.7z M441.8,125c0-0.5-0.1-0.9-0.4-1.2s-0.6-0.5-1-0.5c-0.5,0-0.9,0.2-1.2,0.5s-0.5,0.7-0.5,1.2H441.8z"/>
		<path class="st6" d="M450,125.7h-4.2c0,0.7,0.2,1.3,0.6,1.7s0.9,0.7,1.5,0.7c0.6,0,1.1-0.1,1.7-0.3l0.2,0.7
			c-0.5,0.2-1.2,0.4-1.9,0.4c-0.9,0-1.6-0.3-2.2-0.9s-0.8-1.4-0.8-2.4c0-1,0.2-1.7,0.7-2.3s1.1-0.9,1.9-0.9c0.7,0,1.3,0.3,1.8,0.8
			s0.7,1.2,0.7,2.1V125.7z M449,125c0-0.5-0.1-0.9-0.4-1.2s-0.6-0.5-1-0.5c-0.5,0-0.9,0.2-1.2,0.5s-0.5,0.7-0.5,1.2H449z"/>
		<path class="st6" d="M457,128.8h-0.9v-0.9c-0.2,0.3-0.5,0.5-0.8,0.7s-0.7,0.3-1.1,0.3c-0.7,0-1.3-0.3-1.7-0.9s-0.6-1.4-0.6-2.4
			c0-0.9,0.2-1.6,0.6-2.2s1-0.9,1.7-0.9c0.8,0,1.4,0.3,1.9,0.9v-3h0.9V128.8z M456.1,126.9v-2.5c-0.4-0.7-1-1.1-1.6-1.1
			c-0.5,0-0.9,0.2-1.2,0.7s-0.4,1-0.4,1.7c0,0.7,0.1,1.3,0.4,1.7s0.7,0.7,1.1,0.7c0.2,0,0.5-0.1,0.7-0.2s0.5-0.3,0.7-0.6
			S456.1,126.9,456.1,126.9z"/>
		<path class="st6" d="M460.4,123.4c0.2-0.3,0.5-0.5,0.8-0.7s0.7-0.3,1.1-0.3c0.7,0,1.3,0.3,1.7,0.9s0.6,1.3,0.6,2.2
			c0,0.9-0.2,1.7-0.6,2.4s-1,0.9-1.7,0.9c-0.4,0-0.7-0.1-1.1-0.3s-0.6-0.4-0.8-0.8v0.9h-0.9v-8.3h0.9V123.4z M460.4,124.4v2.5
			c0.2,0.3,0.4,0.6,0.7,0.9s0.6,0.3,0.9,0.3c0.5,0,0.9-0.2,1.2-0.7s0.4-1,0.4-1.7c0-0.7-0.1-1.3-0.4-1.7s-0.7-0.7-1.2-0.7
			C461.4,123.3,460.9,123.6,460.4,124.4z"/>
		<path class="st6" d="M471.6,128.8h-0.9c-0.1-0.2-0.1-0.6-0.1-1c-0.5,0.8-1.2,1.1-2.1,1.1c-0.5,0-0.9-0.2-1.2-0.5s-0.5-0.7-0.5-1.2
			c0-0.3,0.1-0.6,0.2-0.8s0.3-0.4,0.5-0.6s0.5-0.3,0.9-0.4s0.7-0.2,1.2-0.2l1-0.1v-0.3c0-1-0.5-1.6-1.5-1.6c-0.2,0-0.5,0-0.9,0.1
			s-0.7,0.2-0.9,0.4l-0.2-0.7c0.8-0.4,1.6-0.6,2.3-0.6c1.4,0,2.1,0.7,2.1,2.2v2.6C471.4,127.9,471.5,128.3,471.6,128.8z
			 M470.5,126.9v-1.1c-0.8,0.1-1.4,0.1-1.7,0.2s-0.6,0.2-0.8,0.4s-0.3,0.4-0.3,0.7c0,0.3,0.1,0.5,0.3,0.7s0.4,0.3,0.7,0.3
			c0.3,0,0.6-0.1,1-0.3S470.3,127.3,470.5,126.9z"/>
		<path class="st6" d="M478.6,128.6c-0.5,0.2-1.1,0.4-1.8,0.4c-1,0-1.7-0.3-2.3-0.9s-0.9-1.4-0.9-2.3s0.3-1.7,0.9-2.3
			s1.3-0.9,2.3-0.9c0.6,0,1.2,0.1,1.8,0.3l-0.2,0.8c-0.6-0.2-1.1-0.3-1.5-0.3c-0.7,0-1.2,0.2-1.6,0.7s-0.6,1-0.6,1.8
			c0,0.7,0.2,1.3,0.6,1.7s0.9,0.7,1.6,0.7c0.5,0,1-0.1,1.6-0.3L478.6,128.6z"/>
		<path class="st6" d="M486.4,128.8h-1.2l-2.6-3l-0.6,0.5v2.5h-0.9v-8.3h0.9v4.7l2.9-2.6h1.2l-2.8,2.5L486.4,128.8z"/>
		<path class="st6" d="M494.3,131.4h-7.2v-0.8h7.2V131.4z"/>
		<path class="st6" d="M500.3,122.8l-0.4,0.9c-0.4-0.2-0.8-0.3-1-0.3c-0.3,0-0.5,0.1-0.8,0.2s-0.5,0.4-0.7,0.7s-0.3,0.4-0.3,0.5v3.9
			h-0.9v-6.1h0.9v1.2c0.5-0.9,1.1-1.4,1.9-1.4C499.4,122.5,499.9,122.6,500.3,122.8z"/>
		<path class="st6" d="M507.6,125.7h-4.2c0,0.7,0.2,1.3,0.6,1.7s0.9,0.7,1.5,0.7c0.6,0,1.1-0.1,1.7-0.3l0.2,0.7
			c-0.5,0.2-1.2,0.4-1.9,0.4c-0.9,0-1.6-0.3-2.2-0.9s-0.8-1.4-0.8-2.4c0-1,0.2-1.7,0.7-2.3s1.1-0.9,1.9-0.9c0.7,0,1.3,0.3,1.8,0.8
			s0.7,1.2,0.7,2.1V125.7z M506.6,125c0-0.5-0.1-0.9-0.4-1.2s-0.6-0.5-1-0.5c-0.5,0-0.9,0.2-1.2,0.5s-0.5,0.7-0.5,1.2H506.6z"/>
		<path class="st6" d="M514.6,128.6c-0.5,0.2-1.1,0.4-1.8,0.4c-1,0-1.7-0.3-2.3-0.9s-0.9-1.4-0.9-2.3s0.3-1.7,0.9-2.3
			s1.3-0.9,2.3-0.9c0.6,0,1.2,0.1,1.8,0.3l-0.2,0.8c-0.6-0.2-1.1-0.3-1.5-0.3c-0.7,0-1.2,0.2-1.6,0.7s-0.6,1-0.6,1.8
			c0,0.7,0.2,1.3,0.6,1.7s0.9,0.7,1.6,0.7c0.5,0,1-0.1,1.6-0.3L514.6,128.6z"/>
		<path class="st6" d="M519.5,122.5c0.8,0,1.5,0.3,2,0.9s0.7,1.4,0.7,2.3c0,1-0.2,1.7-0.7,2.3s-1.2,0.9-2,0.9c-0.8,0-1.5-0.3-2-0.9
			s-0.7-1.4-0.7-2.3c0-1,0.2-1.7,0.7-2.3S518.6,122.5,519.5,122.5z M519.5,128.1c0.6,0,1-0.2,1.3-0.7s0.5-1,0.5-1.7
			c0-0.7-0.2-1.3-0.5-1.7s-0.8-0.7-1.3-0.7c-0.6,0-1,0.2-1.3,0.7s-0.5,1-0.5,1.7c0,0.7,0.2,1.3,0.5,1.7S518.9,128.1,519.5,128.1z"/>
		<path class="st6" d="M529.1,122.8l-0.4,0.9c-0.4-0.2-0.8-0.3-1-0.3c-0.3,0-0.5,0.1-0.8,0.2s-0.5,0.4-0.7,0.7s-0.3,0.4-0.3,0.5v3.9
			H525v-6.1h0.9v1.2c0.5-0.9,1.1-1.4,1.9-1.4C528.3,122.5,528.7,122.6,529.1,122.8z"/>
		<path class="st6" d="M536.2,128.8h-0.9v-0.9c-0.2,0.3-0.5,0.5-0.8,0.7s-0.7,0.3-1.1,0.3c-0.7,0-1.3-0.3-1.7-0.9s-0.6-1.4-0.6-2.4
			c0-0.9,0.2-1.6,0.6-2.2s1-0.9,1.7-0.9c0.8,0,1.4,0.3,1.9,0.9v-3h0.9V128.8z M535.3,126.9v-2.5c-0.4-0.7-1-1.1-1.6-1.1
			c-0.5,0-0.9,0.2-1.2,0.7s-0.4,1-0.4,1.7c0,0.7,0.1,1.3,0.4,1.7s0.7,0.7,1.1,0.7c0.2,0,0.5-0.1,0.7-0.2s0.5-0.3,0.7-0.6
			S535.3,126.9,535.3,126.9z"/>
		<path class="st6" d="M542.8,123.5c-0.5-0.2-1-0.3-1.4-0.3c-0.5,0-0.9,0.1-1.2,0.2s-0.4,0.4-0.4,0.7c0,0.2,0.1,0.3,0.2,0.5
			s0.4,0.3,0.8,0.4l0.9,0.3c0.4,0.1,0.7,0.2,1,0.4s0.4,0.3,0.6,0.6s0.2,0.5,0.2,0.8c0,0.6-0.2,1-0.7,1.4s-1.1,0.5-1.9,0.5
			c-0.8,0-1.4-0.1-1.9-0.3l0.2-0.8c0.5,0.2,1.1,0.4,1.6,0.4c0.5,0,0.9-0.1,1.2-0.3s0.5-0.4,0.5-0.8c0-0.2-0.1-0.4-0.2-0.6
			s-0.5-0.3-1.1-0.5c-0.5-0.1-0.8-0.3-1-0.3s-0.4-0.2-0.6-0.3s-0.3-0.3-0.4-0.5s-0.1-0.4-0.1-0.7c0-0.5,0.2-0.9,0.7-1.3
			s1.1-0.5,1.8-0.5c0.5,0,1,0.1,1.6,0.3L542.8,123.5z"/>
		<path class="st6" d="M557.6,128.9h-0.9l-3.6-8.6h0.9L557.6,128.9z"/>
		<path class="st6" d="M89.1,144.9h-3.5V144h3.5V144.9z"/>
		<path class="st6" d="M97.8,147.8h-1.1l-2.1-3.4l-2.1,3.4h-1.1l2.6-4.2l-2.6-4.1h1.1l2,3.3l2.1-3.3h1.1l-2.6,4.1L97.8,147.8z"/>
		<path class="st6" d="M108.4,140.9l-0.2,1.6h-0.5l-0.2-1.6v-1.4h0.9V140.9z M110.5,140.9l-0.2,1.6h-0.5l-0.2-1.6v-1.4h0.9V140.9z"
			/>
		<path class="st6" d="M114.1,139.5h2.1c0.8,0,1.4,0.2,1.9,0.6s0.7,0.9,0.7,1.6c0,0.7-0.2,1.3-0.7,1.7s-1.1,0.6-1.9,0.6h-1.2v3.7h-1
			V139.5z M115.1,143.2h1c1.1,0,1.7-0.5,1.7-1.4c0-0.4-0.2-0.8-0.5-1.1s-0.7-0.4-1.2-0.4h-1.1V143.2z"/>
		<path class="st6" d="M123.4,139.3c0.9,0,1.6,0.4,2.1,1.1s0.7,1.8,0.7,3.2c0,1.4-0.2,2.5-0.7,3.2s-1.2,1.1-2.1,1.1
			c-0.9,0-1.6-0.4-2.1-1.1s-0.7-1.8-0.7-3.2s0.2-2.5,0.7-3.2S122.5,139.3,123.4,139.3z M123.4,147.1c1.2,0,1.8-1.1,1.8-3.4
			c0-2.3-0.6-3.5-1.8-3.5c-0.6,0-1,0.3-1.4,0.9s-0.5,1.4-0.5,2.6c0,1.1,0.2,2,0.5,2.6S122.8,147.1,123.4,147.1z"/>
		<path class="st6" d="M132.4,140.4c-0.5-0.2-1-0.3-1.4-0.3c-0.5,0-0.9,0.1-1.2,0.3s-0.5,0.6-0.5,1c0,0.5,0.4,0.9,1.2,1.3
			c0.6,0.3,1,0.5,1.2,0.6s0.4,0.3,0.6,0.5s0.4,0.4,0.5,0.7s0.2,0.6,0.2,0.9c0,0.8-0.3,1.4-0.8,1.9s-1.2,0.7-1.9,0.7
			c-0.7,0-1.3-0.1-1.9-0.4l0.2-0.8c0.6,0.3,1.2,0.4,1.6,0.4c0.5,0,1-0.1,1.3-0.4s0.5-0.7,0.5-1.2c0-0.4-0.1-0.7-0.3-0.9
			s-0.6-0.5-1.2-0.8c-0.6-0.3-1-0.5-1.2-0.6s-0.3-0.2-0.5-0.4s-0.3-0.4-0.4-0.6s-0.1-0.5-0.1-0.7c0-0.7,0.2-1.2,0.7-1.6
			s1.1-0.6,1.9-0.6c0.6,0,1.1,0.1,1.6,0.3L132.4,140.4z"/>
		<path class="st6" d="M140.9,140.3h-2.5v7.5h-1v-7.5h-2.6v-0.8h6.1V140.3z"/>
		<path class="st6" d="M144.4,140.9l-0.2,1.6h-0.5l-0.2-1.6v-1.4h0.9V140.9z M146.5,140.9l-0.2,1.6h-0.5l-0.2-1.6v-1.4h0.9V140.9z"
			/>
		<path class="st6" d="M161.5,147.9h-0.9l-3.6-8.6h0.9L161.5,147.9z"/>
		<path class="st6" d="M89.1,163.9h-3.5V163h3.5V163.9z"/>
		<path class="st6" d="M97,166.8h-1v-4.1h-2.8v4.1h-1v-8.3h1v3.3H96v-3.3h1V166.8z"/>
		<path class="st6" d="M108.4,159.9l-0.2,1.6h-0.5l-0.2-1.6v-1.4h0.9V159.9z M110.5,159.9l-0.2,1.6h-0.5l-0.2-1.6v-1.4h0.9V159.9z"
			/>
		<path class="st6" d="M119.5,166.8h-1l-0.9-2.9h-2.7l-0.9,2.9h-1l2.7-8.3h1.2L119.5,166.8z M117.3,163l-1.1-3.4l-1.1,3.4H117.3z"/>
		<path class="st6" d="M125.8,166.8h-0.9v-0.9c-0.7,0.7-1.3,1-2.1,1c-1.1,0-1.7-0.7-1.7-2.1v-4.2h0.9v3.9c0,0.5,0.1,0.9,0.2,1.2
			s0.4,0.4,0.8,0.4c0.6,0,1.2-0.3,1.8-1v-4.4h0.9V166.8z"/>
		<path class="st6" d="M133,166.5c-0.6,0.3-1.2,0.4-1.8,0.4c-1.1,0-1.6-0.6-1.6-1.7v-3.7h-1.2v-0.8h1.2V159h0.9v1.7h2.1v0.8h-2.1
			v3.5c0,0.4,0.1,0.7,0.2,0.9s0.4,0.3,0.7,0.3c0.5,0,1-0.1,1.5-0.3L133,166.5z"/>
		<path class="st6" d="M140.2,166.8h-0.9v-3.9c0-0.5-0.1-0.9-0.3-1.2s-0.4-0.4-0.8-0.4c-0.6,0-1.2,0.3-1.8,1v4.4h-0.9v-8.3h0.9v3.1
			c0.7-0.7,1.3-1,2.1-1c1.1,0,1.7,0.7,1.7,2.1V166.8z"/>
		<path class="st6" d="M145,160.5c0.8,0,1.5,0.3,2,0.9s0.7,1.4,0.7,2.3c0,1-0.2,1.7-0.7,2.3s-1.2,0.9-2,0.9c-0.8,0-1.5-0.3-2-0.9
			s-0.7-1.4-0.7-2.3c0-1,0.2-1.7,0.7-2.3S144.2,160.5,145,160.5z M145,166.1c0.6,0,1-0.2,1.3-0.7s0.5-1,0.5-1.7
			c0-0.7-0.2-1.3-0.5-1.7s-0.8-0.7-1.3-0.7c-0.6,0-1,0.2-1.3,0.7s-0.5,1-0.5,1.7c0,0.7,0.2,1.3,0.5,1.7S144.5,166.1,145,166.1z"/>
		<path class="st6" d="M154.7,160.8l-0.4,0.9c-0.4-0.2-0.8-0.3-1-0.3c-0.3,0-0.5,0.1-0.8,0.2s-0.5,0.4-0.7,0.7s-0.3,0.4-0.3,0.5v3.9
			h-0.9v-6.1h0.9v1.2c0.5-0.9,1.1-1.4,1.9-1.4C153.8,160.5,154.2,160.6,154.7,160.8z"/>
		<path class="st6" d="M160.3,166.8h-0.9v-5.3h-1.8v-0.8h2.7V166.8z M159.8,158.3c0.2,0,0.3,0.1,0.4,0.2s0.2,0.3,0.2,0.4
			c0,0.2-0.1,0.3-0.2,0.5s-0.3,0.2-0.4,0.2c-0.2,0-0.3-0.1-0.4-0.2s-0.2-0.3-0.2-0.4s0.1-0.3,0.2-0.4S159.7,158.3,159.8,158.3z"/>
		<path class="st6" d="M168.9,166.8h-4.7v-0.5l3.5-4.8h-3.4v-0.8h4.6v0.5l-3.5,4.9h3.5V166.8z"/>
		<path class="st6" d="M176.3,166.8h-0.9c-0.1-0.2-0.1-0.6-0.1-1c-0.5,0.8-1.2,1.1-2.1,1.1c-0.5,0-0.9-0.2-1.2-0.5s-0.5-0.7-0.5-1.2
			c0-0.3,0.1-0.6,0.2-0.8s0.3-0.4,0.5-0.6s0.5-0.3,0.9-0.4s0.7-0.2,1.2-0.2l1-0.1v-0.3c0-1-0.5-1.6-1.5-1.6c-0.2,0-0.5,0-0.9,0.1
			s-0.7,0.2-0.9,0.4l-0.2-0.7c0.8-0.4,1.6-0.6,2.3-0.6c1.4,0,2.1,0.7,2.1,2.2v2.6C176.2,165.9,176.2,166.3,176.3,166.8z
			 M175.3,164.9v-1.1c-0.8,0.1-1.4,0.1-1.7,0.2s-0.6,0.2-0.8,0.4s-0.3,0.4-0.3,0.7c0,0.3,0.1,0.5,0.3,0.7s0.4,0.3,0.7,0.3
			c0.3,0,0.6-0.1,1-0.3S175,165.3,175.3,164.9z"/>
		<path class="st6" d="M183.4,166.5c-0.6,0.3-1.2,0.4-1.8,0.4c-1.1,0-1.6-0.6-1.6-1.7v-3.7h-1.2v-0.8h1.2V159h0.9v1.7h2.1v0.8h-2.1
			v3.5c0,0.4,0.1,0.7,0.2,0.9s0.4,0.3,0.7,0.3c0.5,0,1-0.1,1.5-0.3L183.4,166.5z"/>
		<path class="st6" d="M189.1,166.8h-0.9v-5.3h-1.8v-0.8h2.7V166.8z M188.6,158.3c0.2,0,0.3,0.1,0.4,0.2s0.2,0.3,0.2,0.4
			c0,0.2-0.1,0.3-0.2,0.5s-0.3,0.2-0.4,0.2c-0.2,0-0.3-0.1-0.4-0.2s-0.2-0.3-0.2-0.4s0.1-0.3,0.2-0.4S188.5,158.3,188.6,158.3z"/>
		<path class="st6" d="M195.4,160.5c0.8,0,1.5,0.3,2,0.9s0.7,1.4,0.7,2.3c0,1-0.2,1.7-0.7,2.3s-1.2,0.9-2,0.9c-0.8,0-1.5-0.3-2-0.9
			s-0.7-1.4-0.7-2.3c0-1,0.2-1.7,0.7-2.3S194.6,160.5,195.4,160.5z M195.4,166.1c0.6,0,1-0.2,1.3-0.7s0.5-1,0.5-1.7
			c0-0.7-0.2-1.3-0.5-1.7s-0.8-0.7-1.3-0.7c-0.6,0-1,0.2-1.3,0.7s-0.5,1-0.5,1.7c0,0.7,0.2,1.3,0.5,1.7S194.9,166.1,195.4,166.1z"/>
		<path class="st6" d="M205,166.8h-0.9v-3.9c0-0.5-0.1-0.9-0.3-1.2s-0.4-0.4-0.8-0.4c-0.6,0-1.2,0.3-1.8,1v4.4h-0.9v-6.1h0.9v0.9
			c0.7-0.7,1.3-1,2.1-1c1.1,0,1.7,0.7,1.7,2.1V166.8z"/>
		<path class="st6" d="M209.8,160.6c0.2,0,0.4,0.1,0.5,0.2s0.2,0.3,0.2,0.5s-0.1,0.4-0.2,0.5s-0.3,0.2-0.5,0.2
			c-0.2,0-0.4-0.1-0.5-0.2s-0.2-0.3-0.2-0.5s0.1-0.4,0.2-0.5S209.6,160.6,209.8,160.6z M209.8,165.5c0.2,0,0.4,0.1,0.5,0.2
			s0.2,0.3,0.2,0.5c0,0.2-0.1,0.4-0.2,0.5s-0.3,0.2-0.5,0.2c-0.2,0-0.4-0.1-0.5-0.2s-0.2-0.3-0.2-0.5c0-0.2,0.1-0.4,0.2-0.5
			S209.6,165.5,209.8,165.5z"/>
		<path class="st6" d="M225.2,162.2c0.6,0.1,1,0.4,1.3,0.8s0.5,0.8,0.5,1.3c0,0.8-0.3,1.3-0.8,1.8s-1.2,0.7-2,0.7h-2.3v-8.3h2.3
			c0.8,0,1.4,0.2,1.9,0.5s0.7,0.8,0.7,1.5c0,0.4-0.1,0.7-0.4,1S225.7,162.1,225.2,162.2L225.2,162.2z M222.8,161.8h1.1
			c1.2,0,1.8-0.4,1.8-1.3c0-0.4-0.1-0.7-0.4-0.9s-0.7-0.3-1.3-0.3h-1.2V161.8z M222.8,165.9h1.1c0.6,0,1.1-0.1,1.5-0.4
			s0.6-0.7,0.6-1.2c0-0.5-0.2-0.9-0.6-1.2s-0.9-0.4-1.6-0.4h-1V165.9z"/>
		<path class="st6" d="M234,163.7h-4.2c0,0.7,0.2,1.3,0.6,1.7s0.9,0.7,1.5,0.7c0.6,0,1.1-0.1,1.7-0.3l0.2,0.7
			c-0.5,0.2-1.2,0.4-1.9,0.4c-0.9,0-1.6-0.3-2.2-0.9s-0.8-1.4-0.8-2.4c0-1,0.2-1.7,0.7-2.3s1.1-0.9,1.9-0.9c0.7,0,1.3,0.3,1.8,0.8
			s0.7,1.2,0.7,2.1V163.7z M233,163c0-0.5-0.1-0.9-0.4-1.2s-0.6-0.5-1-0.5c-0.5,0-0.9,0.2-1.2,0.5s-0.5,0.7-0.5,1.2H233z"/>
		<path class="st6" d="M241.1,166.8h-0.9c-0.1-0.2-0.1-0.6-0.1-1c-0.5,0.8-1.2,1.1-2.1,1.1c-0.5,0-0.9-0.2-1.2-0.5s-0.5-0.7-0.5-1.2
			c0-0.3,0.1-0.6,0.2-0.8s0.3-0.4,0.5-0.6s0.5-0.3,0.9-0.4s0.7-0.2,1.2-0.2l1-0.1v-0.3c0-1-0.5-1.6-1.5-1.6c-0.2,0-0.5,0-0.9,0.1
			s-0.7,0.2-0.9,0.4l-0.2-0.7c0.8-0.4,1.6-0.6,2.3-0.6c1.4,0,2.1,0.7,2.1,2.2v2.6C241,165.9,241,166.3,241.1,166.8z M240.1,164.9
			v-1.1c-0.8,0.1-1.4,0.1-1.7,0.2s-0.6,0.2-0.8,0.4s-0.3,0.4-0.3,0.7c0,0.3,0.1,0.5,0.3,0.7s0.4,0.3,0.7,0.3c0.3,0,0.6-0.1,1-0.3
			S239.8,165.3,240.1,164.9z"/>
		<path class="st6" d="M248.3,160.8l-0.4,0.9c-0.4-0.2-0.8-0.3-1-0.3c-0.3,0-0.5,0.1-0.8,0.2s-0.5,0.4-0.7,0.7s-0.3,0.4-0.3,0.5v3.9
			h-0.9v-6.1h0.9v1.2c0.5-0.9,1.1-1.4,1.9-1.4C247.4,160.5,247.9,160.6,248.3,160.8z"/>
		<path class="st6" d="M255.6,163.7h-4.2c0,0.7,0.2,1.3,0.6,1.7s0.9,0.7,1.5,0.7c0.6,0,1.1-0.1,1.7-0.3l0.2,0.7
			c-0.5,0.2-1.2,0.4-1.9,0.4c-0.9,0-1.6-0.3-2.2-0.9s-0.8-1.4-0.8-2.4c0-1,0.2-1.7,0.7-2.3s1.1-0.9,1.9-0.9c0.7,0,1.3,0.3,1.8,0.8
			s0.7,1.2,0.7,2.1V163.7z M254.6,163c0-0.5-0.1-0.9-0.4-1.2s-0.6-0.5-1-0.5c-0.5,0-0.9,0.2-1.2,0.5s-0.5,0.7-0.5,1.2H254.6z"/>
		<path class="st6" d="M262.7,160.8l-0.4,0.9c-0.4-0.2-0.8-0.3-1-0.3c-0.3,0-0.5,0.1-0.8,0.2s-0.5,0.4-0.7,0.7s-0.3,0.4-0.3,0.5v3.9
			h-0.9v-6.1h0.9v1.2c0.5-0.9,1.1-1.4,1.9-1.4C261.8,160.5,262.3,160.6,262.7,160.8z"/>
		<path class="st6" d="M274.6,158.3c0.9,0,1.5,0.4,2,1.1s0.7,1.8,0.7,3.2c0,1.3-0.2,2.4-0.7,3.1s-1.1,1.2-2,1.2
			c-0.9,0-1.5-0.4-2-1.1s-0.7-1.8-0.7-3.2c0-1.3,0.2-2.4,0.7-3.1S273.7,158.3,274.6,158.3z M274.6,166.1c0.6,0,1-0.3,1.3-0.8
			s0.4-1.4,0.4-2.6c0-1.2-0.1-2.1-0.4-2.6s-0.7-0.8-1.3-0.8c-0.6,0-1,0.3-1.3,0.8s-0.4,1.4-0.4,2.6c0,1.2,0.1,2.1,0.4,2.6
			S274,166.1,274.6,166.1z M274.6,161.7c0.2,0,0.5,0.1,0.6,0.3s0.3,0.4,0.3,0.6c0,0.3-0.1,0.5-0.3,0.7s-0.4,0.3-0.6,0.3
			c-0.2,0-0.4-0.1-0.6-0.3s-0.3-0.4-0.3-0.7c0-0.2,0.1-0.5,0.2-0.6S274.4,161.7,274.6,161.7z"/>
		<path class="st6" d="M284.4,163.7h-4.2c0,0.7,0.2,1.3,0.6,1.7s0.9,0.7,1.5,0.7c0.6,0,1.1-0.1,1.7-0.3l0.2,0.7
			c-0.5,0.2-1.2,0.4-1.9,0.4c-0.9,0-1.6-0.3-2.2-0.9s-0.8-1.4-0.8-2.4c0-1,0.2-1.7,0.7-2.3s1.1-0.9,1.9-0.9c0.7,0,1.3,0.3,1.8,0.8
			s0.7,1.2,0.7,2.1V163.7z M283.4,163c0-0.5-0.1-0.9-0.4-1.2s-0.6-0.5-1-0.5c-0.5,0-0.9,0.2-1.2,0.5s-0.5,0.7-0.5,1.2H283.4z"/>
		<path class="st6" d="M287.6,161.4c0.2-0.3,0.5-0.5,0.8-0.7s0.7-0.3,1.1-0.3c0.7,0,1.3,0.3,1.7,0.9s0.6,1.3,0.6,2.2
			c0,0.9-0.2,1.7-0.6,2.4s-1,0.9-1.7,0.9c-0.4,0-0.7-0.1-1.1-0.3s-0.6-0.4-0.8-0.8v0.9h-0.9v-8.3h0.9V161.4z M287.6,162.4v2.5
			c0.2,0.3,0.4,0.6,0.7,0.9s0.6,0.3,0.9,0.3c0.5,0,0.9-0.2,1.2-0.7s0.4-1,0.4-1.7c0-0.7-0.1-1.3-0.4-1.7s-0.7-0.7-1.2-0.7
			C288.6,161.3,288.1,161.6,287.6,162.4z"/>
		<path class="st6" d="M298.8,166.8h-0.9c-0.1-0.2-0.1-0.6-0.1-1c-0.5,0.8-1.2,1.1-2.1,1.1c-0.5,0-0.9-0.2-1.2-0.5s-0.5-0.7-0.5-1.2
			c0-0.3,0.1-0.6,0.2-0.8s0.3-0.4,0.5-0.6s0.5-0.3,0.9-0.4s0.7-0.2,1.2-0.2l1-0.1v-0.3c0-1-0.5-1.6-1.5-1.6c-0.2,0-0.5,0-0.9,0.1
			s-0.7,0.2-0.9,0.4l-0.2-0.7c0.8-0.4,1.6-0.6,2.3-0.6c1.4,0,2.1,0.7,2.1,2.2v2.6C298.6,165.9,298.7,166.3,298.8,166.8z
			 M297.7,164.9v-1.1c-0.8,0.1-1.4,0.1-1.7,0.2s-0.6,0.2-0.8,0.4s-0.3,0.4-0.3,0.7c0,0.3,0.1,0.5,0.3,0.7s0.4,0.3,0.7,0.3
			c0.3,0,0.6-0.1,1-0.3S297.4,165.3,297.7,164.9z"/>
		<path class="st6" d="M306,163.7h-4.2c0,0.7,0.2,1.3,0.6,1.7s0.9,0.7,1.5,0.7c0.6,0,1.1-0.1,1.7-0.3l0.2,0.7
			c-0.5,0.2-1.2,0.4-1.9,0.4c-0.9,0-1.6-0.3-2.2-0.9s-0.8-1.4-0.8-2.4c0-1,0.2-1.7,0.7-2.3s1.1-0.9,1.9-0.9c0.7,0,1.3,0.3,1.8,0.8
			s0.7,1.2,0.7,2.1V163.7z M305,163c0-0.5-0.1-0.9-0.4-1.2s-0.6-0.5-1-0.5c-0.5,0-0.9,0.2-1.2,0.5s-0.5,0.7-0.5,1.2H305z"/>
		<path class="st6" d="M313,166.8h-0.9v-0.9c-0.2,0.3-0.5,0.5-0.8,0.7s-0.7,0.3-1.1,0.3c-0.7,0-1.3-0.3-1.7-0.9s-0.6-1.4-0.6-2.4
			c0-0.9,0.2-1.6,0.6-2.2s1-0.9,1.7-0.9c0.8,0,1.4,0.3,1.9,0.9v-3h0.9V166.8z M312.1,164.9v-2.5c-0.4-0.7-1-1.1-1.6-1.1
			c-0.5,0-0.9,0.2-1.2,0.7s-0.4,1-0.4,1.7c0,0.7,0.1,1.3,0.4,1.7s0.7,0.7,1.1,0.7c0.2,0,0.5-0.1,0.7-0.2s0.5-0.3,0.7-0.6
			S312.1,164.9,312.1,164.9z"/>
		<path class="st6" d="M320.5,164.8h-1v1.9h-1v-1.9H315v-0.7l3.3-5.6h1.3v5.5h1V164.8z M318.5,164v-4.6l-2.6,4.6H318.5z"/>
		<path class="st6" d="M323.6,162.5c0.5-0.4,1.1-0.6,1.7-0.6c0.7,0,1.3,0.2,1.7,0.7s0.7,1,0.7,1.7c0,0.8-0.2,1.4-0.6,1.9
			s-1,0.8-1.7,0.8c-0.9,0-1.6-0.4-2.1-1.2s-0.8-1.8-0.8-3c0-1.2,0.3-2.3,0.8-3.1s1.3-1.3,2.2-1.3c0.6,0,1.2,0.1,1.7,0.3l-0.2,0.9
			c-0.5-0.2-1-0.3-1.5-0.3c-0.6,0-1.1,0.3-1.5,0.9S323.6,161.5,323.6,162.5z M323.6,163.3c0,0.7,0.2,1.3,0.5,1.9s0.8,0.9,1.3,0.9
			c0.4,0,0.8-0.2,1-0.5s0.3-0.7,0.3-1.3c0-0.5-0.1-0.9-0.4-1.2s-0.6-0.4-1.1-0.4C324.6,162.7,324.1,162.9,323.6,163.3z"/>
		<path class="st6" d="M334.4,166.8h-4.5v-0.7c1.2-1.3,1.9-2.1,2.2-2.6s0.6-0.9,0.8-1.4s0.3-1,0.3-1.4c0-0.5-0.1-0.8-0.4-1.1
			s-0.7-0.4-1.2-0.4c-0.4,0-0.9,0.1-1.6,0.4l-0.1-0.8c0.6-0.2,1.2-0.4,1.9-0.4c0.7,0,1.3,0.2,1.8,0.6s0.7,1,0.7,1.7
			c0,0.5-0.1,1-0.3,1.5s-0.5,1-0.9,1.4s-1.1,1.3-2.1,2.4h3.5V166.8z"/>
		<path class="st6" d="M340.3,162.2c0.6,0.2,1,0.4,1.3,0.8s0.5,0.9,0.5,1.4c0,0.8-0.3,1.4-0.8,1.8s-1.1,0.7-1.9,0.7
			c-0.8,0-1.4-0.2-1.9-0.7s-0.7-1-0.7-1.8c0-0.5,0.2-1,0.5-1.4s0.8-0.7,1.3-0.8c-0.5-0.1-0.8-0.3-1.1-0.7s-0.4-0.7-0.4-1.1
			c0-0.5,0.2-1,0.6-1.4s1-0.6,1.7-0.6c0.7,0,1.2,0.2,1.7,0.6s0.7,0.9,0.7,1.4c0,0.4-0.1,0.8-0.4,1.1S340.7,162.1,340.3,162.2z
			 M339.4,162.6c-1.1,0.3-1.6,0.9-1.6,1.8c0,0.5,0.2,0.9,0.5,1.2s0.7,0.5,1.1,0.5c0.5,0,0.8-0.1,1.1-0.4s0.5-0.7,0.5-1.2
			c0-0.4-0.1-0.7-0.3-1S340.1,162.8,339.4,162.6z M339.4,161.8c0,0,0.1,0,0.3-0.1s0.3-0.1,0.4-0.2s0.2-0.2,0.3-0.3s0.2-0.2,0.2-0.4
			s0.1-0.3,0.1-0.5c0-0.4-0.1-0.7-0.4-0.9s-0.6-0.4-1-0.4c-0.4,0-0.7,0.1-1,0.4s-0.4,0.6-0.4,0.9c0,0.2,0,0.4,0.1,0.6
			s0.2,0.3,0.4,0.4s0.3,0.2,0.5,0.2S339.4,161.8,339.4,161.8z"/>
		<path class="st6" d="M348.2,162.8c-0.5,0.4-1,0.6-1.7,0.6c-0.7,0-1.3-0.2-1.7-0.7s-0.7-1-0.7-1.7c0-0.8,0.2-1.4,0.7-1.9
			s1-0.8,1.7-0.8c0.9,0,1.5,0.4,2,1.2s0.7,1.8,0.7,3s-0.3,2.3-0.9,3.1s-1.3,1.3-2.3,1.3c-0.6,0-1.2-0.1-1.7-0.3l0.2-0.8
			c0.5,0.2,1,0.3,1.5,0.3c0.6,0,1.2-0.3,1.6-0.9S348.2,163.7,348.2,162.8z M348.2,162c0-0.7-0.2-1.4-0.5-2s-0.7-0.8-1.2-0.8
			c-0.4,0-0.8,0.2-1.1,0.5s-0.4,0.8-0.4,1.3c0,0.5,0.1,0.9,0.4,1.2s0.6,0.5,1.1,0.5C347.2,162.6,347.7,162.4,348.2,162L348.2,162z"
			/>
		<path class="st6" d="M352.8,161.8c0.3-0.1,0.5-0.1,0.8-0.1c0.8,0,1.4,0.2,1.9,0.7s0.7,1.1,0.7,1.8c0,0.8-0.3,1.4-0.8,1.9
			s-1.2,0.8-1.9,0.8c-0.7,0-1.3-0.1-1.8-0.4l0.2-0.8c0.5,0.2,1.1,0.3,1.6,0.3c0.5,0,0.9-0.2,1.2-0.5s0.5-0.8,0.5-1.4
			c0-0.6-0.1-1-0.4-1.3s-0.7-0.4-1.1-0.4c-0.3,0-0.7,0.1-1,0.2l-0.6-0.3v-3.9h3.8v0.8h-2.9V161.8z"/>
		<path class="st6" d="M361,158.3c0.9,0,1.5,0.4,2,1.1s0.7,1.8,0.7,3.2c0,1.3-0.2,2.4-0.7,3.1s-1.1,1.2-2,1.2c-0.9,0-1.5-0.4-2-1.1
			s-0.7-1.8-0.7-3.2c0-1.3,0.2-2.4,0.7-3.1S360.1,158.3,361,158.3z M361,166.1c0.6,0,1-0.3,1.3-0.8s0.4-1.4,0.4-2.6
			c0-1.2-0.1-2.1-0.4-2.6s-0.7-0.8-1.3-0.8c-0.6,0-1,0.3-1.3,0.8s-0.4,1.4-0.4,2.6c0,1.2,0.1,2.1,0.4,2.6S360.5,166.1,361,166.1z
			 M361,161.7c0.2,0,0.5,0.1,0.6,0.3s0.3,0.4,0.3,0.6c0,0.3-0.1,0.5-0.3,0.7s-0.4,0.3-0.6,0.3c-0.2,0-0.4-0.1-0.6-0.3
			s-0.3-0.4-0.3-0.7c0-0.2,0.1-0.5,0.2-0.6S360.8,161.7,361,161.7z"/>
		<path class="st6" d="M370.9,164.8h-1v1.9h-1v-1.9h-3.6v-0.7l3.3-5.6h1.3v5.5h1V164.8z M369,164v-4.6l-2.6,4.6H369z"/>
		<path class="st6" d="M377,162.8c-0.5,0.4-1,0.6-1.7,0.6c-0.7,0-1.3-0.2-1.7-0.7s-0.7-1-0.7-1.7c0-0.8,0.2-1.4,0.7-1.9
			s1-0.8,1.7-0.8c0.9,0,1.5,0.4,2,1.2s0.7,1.8,0.7,3s-0.3,2.3-0.9,3.1s-1.3,1.3-2.3,1.3c-0.6,0-1.2-0.1-1.7-0.3l0.2-0.8
			c0.5,0.2,1,0.3,1.5,0.3c0.6,0,1.2-0.3,1.6-0.9S377,163.7,377,162.8z M377,162c0-0.7-0.2-1.4-0.5-2s-0.7-0.8-1.2-0.8
			c-0.4,0-0.8,0.2-1.1,0.5s-0.4,0.8-0.4,1.3c0,0.5,0.1,0.9,0.4,1.2s0.6,0.5,1.1,0.5C376,162.6,376.5,162.4,377,162L377,162z"/>
		<path class="st6" d="M383.2,162.3c0.5,0.1,0.9,0.4,1.2,0.8s0.5,0.8,0.5,1.3c0,0.7-0.3,1.3-0.8,1.8s-1.2,0.7-2,0.7
			c-0.7,0-1.2-0.1-1.8-0.4l0.2-0.8c0.5,0.3,1.1,0.4,1.6,0.4c0.5,0,0.9-0.2,1.3-0.5s0.5-0.7,0.5-1.2c0-0.5-0.2-0.9-0.6-1.2
			s-0.9-0.5-1.5-0.5h-0.3V162h0.1c0.6,0,1.1-0.1,1.5-0.4s0.6-0.7,0.6-1.1c0-0.4-0.1-0.7-0.4-0.9s-0.7-0.3-1.2-0.3
			c-0.4,0-0.9,0.1-1.4,0.3l-0.1-0.8c0.5-0.2,1.1-0.4,1.6-0.4c0.7,0,1.3,0.2,1.8,0.6s0.7,0.9,0.7,1.5c0,0.4-0.1,0.8-0.4,1.2
			S383.6,162.2,383.2,162.3L383.2,162.3z"/>
		<path class="st6" d="M392.5,164.8h-1v1.9h-1v-1.9H387v-0.7l3.3-5.6h1.3v5.5h1V164.8z M390.6,164v-4.6l-2.6,4.6H390.6z"/>
		<path class="st6" d="M399.6,163.7h-4.2c0,0.7,0.2,1.3,0.6,1.7s0.9,0.7,1.5,0.7c0.6,0,1.1-0.1,1.7-0.3l0.2,0.7
			c-0.5,0.2-1.2,0.4-1.9,0.4c-0.9,0-1.6-0.3-2.2-0.9s-0.8-1.4-0.8-2.4c0-1,0.2-1.7,0.7-2.3s1.1-0.9,1.9-0.9c0.7,0,1.3,0.3,1.8,0.8
			s0.7,1.2,0.7,2.1V163.7z M398.6,163c0-0.5-0.1-0.9-0.4-1.2s-0.6-0.5-1-0.5c-0.5,0-0.9,0.2-1.2,0.5s-0.5,0.7-0.5,1.2H398.6z"/>
		<path class="st6" d="M404.8,162.3c0.5,0.1,0.9,0.4,1.2,0.8s0.5,0.8,0.5,1.3c0,0.7-0.3,1.3-0.8,1.8s-1.2,0.7-2,0.7
			c-0.7,0-1.2-0.1-1.8-0.4l0.2-0.8c0.5,0.3,1.1,0.4,1.6,0.4c0.5,0,0.9-0.2,1.3-0.5s0.5-0.7,0.5-1.2c0-0.5-0.2-0.9-0.6-1.2
			s-0.9-0.5-1.5-0.5h-0.3V162h0.1c0.6,0,1.1-0.1,1.5-0.4s0.6-0.7,0.6-1.1c0-0.4-0.1-0.7-0.4-0.9s-0.7-0.3-1.2-0.3
			c-0.4,0-0.9,0.1-1.4,0.3l-0.1-0.8c0.5-0.2,1.1-0.4,1.6-0.4c0.7,0,1.3,0.2,1.8,0.6s0.7,0.9,0.7,1.5c0,0.4-0.1,0.8-0.4,1.2
			S405.2,162.2,404.8,162.3L404.8,162.3z"/>
		<path class="st6" d="M413.8,166.8h-0.9v-0.9c-0.2,0.3-0.5,0.5-0.8,0.7s-0.7,0.3-1.1,0.3c-0.7,0-1.3-0.3-1.7-0.9s-0.6-1.4-0.6-2.4
			c0-0.9,0.2-1.6,0.6-2.2s1-0.9,1.7-0.9c0.8,0,1.4,0.3,1.9,0.9v-3h0.9V166.8z M412.9,164.9v-2.5c-0.4-0.7-1-1.1-1.6-1.1
			c-0.5,0-0.9,0.2-1.2,0.7s-0.4,1-0.4,1.7c0,0.7,0.1,1.3,0.4,1.7s0.7,0.7,1.1,0.7c0.2,0,0.5-0.1,0.7-0.2s0.5-0.3,0.7-0.6
			S412.9,164.9,412.9,164.9z"/>
		<path class="st6" d="M419.5,162.2c0.6,0.2,1,0.4,1.3,0.8s0.5,0.9,0.5,1.4c0,0.8-0.3,1.4-0.8,1.8s-1.1,0.7-1.9,0.7
			c-0.8,0-1.4-0.2-1.9-0.7s-0.7-1-0.7-1.8c0-0.5,0.2-1,0.5-1.4s0.8-0.7,1.3-0.8c-0.5-0.1-0.8-0.3-1.1-0.7s-0.4-0.7-0.4-1.1
			c0-0.5,0.2-1,0.6-1.4s1-0.6,1.7-0.6c0.7,0,1.2,0.2,1.7,0.6s0.7,0.9,0.7,1.4c0,0.4-0.1,0.8-0.4,1.1S419.9,162.1,419.5,162.2z
			 M418.6,162.6c-1.1,0.3-1.6,0.9-1.6,1.8c0,0.5,0.2,0.9,0.5,1.2s0.7,0.5,1.1,0.5c0.5,0,0.8-0.1,1.1-0.4s0.5-0.7,0.5-1.2
			c0-0.4-0.1-0.7-0.3-1S419.3,162.8,418.6,162.6z M418.6,161.8c0,0,0.1,0,0.3-0.1s0.3-0.1,0.4-0.2s0.2-0.2,0.3-0.3s0.2-0.2,0.2-0.4
			s0.1-0.3,0.1-0.5c0-0.4-0.1-0.7-0.4-0.9s-0.6-0.4-1-0.4c-0.4,0-0.7,0.1-1,0.4s-0.4,0.6-0.4,0.9c0,0.2,0,0.4,0.1,0.6
			s0.2,0.3,0.4,0.4s0.3,0.2,0.5,0.2S418.6,161.8,418.6,161.8z"/>
		<path class="st6" d="M428,166.8h-4.5v-0.7c1.2-1.3,1.9-2.1,2.2-2.6s0.6-0.9,0.8-1.4s0.3-1,0.3-1.4c0-0.5-0.1-0.8-0.4-1.1
			s-0.7-0.4-1.2-0.4c-0.4,0-0.9,0.1-1.6,0.4l-0.1-0.8c0.6-0.2,1.2-0.4,1.9-0.4c0.7,0,1.3,0.2,1.8,0.6s0.7,1,0.7,1.7
			c0,0.5-0.1,1-0.3,1.5s-0.5,1-0.9,1.4s-1.1,1.3-2.1,2.4h3.5V166.8z"/>
		<path class="st6" d="M435.4,166.6c-0.5,0.2-1.1,0.4-1.8,0.4c-1,0-1.7-0.3-2.3-0.9s-0.9-1.4-0.9-2.3s0.3-1.7,0.9-2.3
			s1.3-0.9,2.3-0.9c0.6,0,1.2,0.1,1.8,0.3l-0.2,0.8c-0.6-0.2-1.1-0.3-1.5-0.3c-0.7,0-1.2,0.2-1.6,0.7s-0.6,1-0.6,1.8
			c0,0.7,0.2,1.3,0.6,1.7s0.9,0.7,1.6,0.7c0.5,0,1-0.1,1.6-0.3L435.4,166.6z"/>
		<path class="st6" d="M442.9,164.8h-1v1.9h-1v-1.9h-3.6v-0.7l3.3-5.6h1.3v5.5h1V164.8z M441,164v-4.6l-2.6,4.6H441z"/>
		<path class="st6" d="M450,166.8h-0.9c-0.1-0.2-0.1-0.6-0.1-1c-0.5,0.8-1.2,1.1-2.1,1.1c-0.5,0-0.9-0.2-1.2-0.5s-0.5-0.7-0.5-1.2
			c0-0.3,0.1-0.6,0.2-0.8s0.3-0.4,0.5-0.6s0.5-0.3,0.9-0.4s0.7-0.2,1.2-0.2l1-0.1v-0.3c0-1-0.5-1.6-1.5-1.6c-0.2,0-0.5,0-0.9,0.1
			s-0.7,0.2-0.9,0.4l-0.2-0.7c0.8-0.4,1.6-0.6,2.3-0.6c1.4,0,2.1,0.7,2.1,2.2v2.6C449.8,165.9,449.9,166.3,450,166.8z M448.9,164.9
			v-1.1c-0.8,0.1-1.4,0.1-1.7,0.2s-0.6,0.2-0.8,0.4s-0.3,0.4-0.3,0.7c0,0.3,0.1,0.5,0.3,0.7s0.4,0.3,0.7,0.3c0.3,0,0.6-0.1,1-0.3
			S448.7,165.3,448.9,164.9z"/>
		<path class="st6" d="M455.2,162.3c0.5,0.1,0.9,0.4,1.2,0.8s0.5,0.8,0.5,1.3c0,0.7-0.3,1.3-0.8,1.8s-1.2,0.7-2,0.7
			c-0.7,0-1.2-0.1-1.8-0.4l0.2-0.8c0.5,0.3,1.1,0.4,1.6,0.4c0.5,0,0.9-0.2,1.3-0.5s0.5-0.7,0.5-1.2c0-0.5-0.2-0.9-0.6-1.2
			s-0.9-0.5-1.5-0.5h-0.3V162h0.1c0.6,0,1.1-0.1,1.5-0.4s0.6-0.7,0.6-1.1c0-0.4-0.1-0.7-0.4-0.9s-0.7-0.3-1.2-0.3
			c-0.4,0-0.9,0.1-1.4,0.3l-0.1-0.8c0.5-0.2,1.1-0.4,1.6-0.4c0.7,0,1.3,0.2,1.8,0.6s0.7,0.9,0.7,1.5c0,0.4-0.1,0.8-0.4,1.2
			S455.6,162.2,455.2,162.3L455.2,162.3z"/>
		<path class="st6" d="M464.3,158.6l-0.2,0.7c-0.4-0.1-0.8-0.2-1.2-0.2c-0.3,0-0.6,0.1-0.7,0.3s-0.2,0.6-0.2,1.1v0.1h2.1v0.8H462
			v5.3h-0.9v-5.3h-1.5v-0.8h1.5v-0.2c0-0.8,0.1-1.3,0.4-1.6s0.7-0.5,1.4-0.5C463.3,158.3,463.8,158.4,464.3,158.6z"/>
		<path class="st6" d="M467.6,162.5c0.5-0.4,1.1-0.6,1.7-0.6c0.7,0,1.3,0.2,1.7,0.7s0.7,1,0.7,1.7c0,0.8-0.2,1.4-0.6,1.9
			s-1,0.8-1.7,0.8c-0.9,0-1.6-0.4-2.1-1.2s-0.8-1.8-0.8-3c0-1.2,0.3-2.3,0.8-3.1s1.3-1.3,2.2-1.3c0.6,0,1.2,0.1,1.7,0.3l-0.2,0.9
			c-0.5-0.2-1-0.3-1.5-0.3c-0.6,0-1.1,0.3-1.5,0.9S467.6,161.5,467.6,162.5z M467.6,163.3c0,0.7,0.2,1.3,0.5,1.9s0.8,0.9,1.3,0.9
			c0.4,0,0.8-0.2,1-0.5s0.3-0.7,0.3-1.3c0-0.5-0.1-0.9-0.4-1.2s-0.6-0.4-1.1-0.4C468.6,162.7,468.1,162.9,467.6,163.3z"/>
		<path class="st6" d="M474.8,162.5c0.5-0.4,1.1-0.6,1.7-0.6c0.7,0,1.3,0.2,1.7,0.7s0.7,1,0.7,1.7c0,0.8-0.2,1.4-0.6,1.9
			s-1,0.8-1.7,0.8c-0.9,0-1.6-0.4-2.1-1.2s-0.8-1.8-0.8-3c0-1.2,0.3-2.3,0.8-3.1s1.3-1.3,2.2-1.3c0.6,0,1.2,0.1,1.7,0.3l-0.2,0.9
			c-0.5-0.2-1-0.3-1.5-0.3c-0.6,0-1.1,0.3-1.5,0.9S474.8,161.5,474.8,162.5z M474.8,163.3c0,0.7,0.2,1.3,0.5,1.9s0.8,0.9,1.3,0.9
			c0.4,0,0.8-0.2,1-0.5s0.3-0.7,0.3-1.3c0-0.5-0.1-0.9-0.4-1.2s-0.6-0.4-1.1-0.4C475.8,162.7,475.3,162.9,474.8,163.3z"/>
		<path class="st6" d="M485.9,159.2l-3.3,7.6h-1l3.2-7.4H481v-0.8h4.9V159.2z"/>
		<path class="st6" d="M491.5,162.2c0.6,0.2,1,0.4,1.3,0.8s0.5,0.9,0.5,1.4c0,0.8-0.3,1.4-0.8,1.8s-1.1,0.7-1.9,0.7
			c-0.8,0-1.4-0.2-1.9-0.7s-0.7-1-0.7-1.8c0-0.5,0.2-1,0.5-1.4s0.8-0.7,1.3-0.8c-0.5-0.1-0.8-0.3-1.1-0.7s-0.4-0.7-0.4-1.1
			c0-0.5,0.2-1,0.6-1.4s1-0.6,1.7-0.6c0.7,0,1.2,0.2,1.7,0.6s0.7,0.9,0.7,1.4c0,0.4-0.1,0.8-0.4,1.1S491.9,162.1,491.5,162.2z
			 M490.6,162.6c-1.1,0.3-1.6,0.9-1.6,1.8c0,0.5,0.2,0.9,0.5,1.2s0.7,0.5,1.1,0.5c0.5,0,0.8-0.1,1.1-0.4s0.5-0.7,0.5-1.2
			c0-0.4-0.1-0.7-0.3-1S491.3,162.8,490.6,162.6z M490.6,161.8c0,0,0.1,0,0.3-0.1s0.3-0.1,0.4-0.2s0.2-0.2,0.3-0.3s0.2-0.2,0.2-0.4
			s0.1-0.3,0.1-0.5c0-0.4-0.1-0.7-0.4-0.9s-0.6-0.4-1-0.4c-0.4,0-0.7,0.1-1,0.4s-0.4,0.6-0.4,0.9c0,0.2,0,0.4,0.1,0.6
			s0.2,0.3,0.4,0.4s0.3,0.2,0.5,0.2S490.6,161.8,490.6,161.8z"/>
		<path class="st6" d="M499.4,162.8c-0.5,0.4-1,0.6-1.7,0.6c-0.7,0-1.3-0.2-1.7-0.7s-0.7-1-0.7-1.7c0-0.8,0.2-1.4,0.7-1.9
			s1-0.8,1.7-0.8c0.9,0,1.5,0.4,2,1.2s0.7,1.8,0.7,3s-0.3,2.3-0.9,3.1s-1.3,1.3-2.3,1.3c-0.6,0-1.2-0.1-1.7-0.3l0.2-0.8
			c0.5,0.2,1,0.3,1.5,0.3c0.6,0,1.2-0.3,1.6-0.9S499.4,163.7,499.4,162.8z M499.4,162c0-0.7-0.2-1.4-0.5-2s-0.7-0.8-1.2-0.8
			c-0.4,0-0.8,0.2-1.1,0.5s-0.4,0.8-0.4,1.3c0,0.5,0.1,0.9,0.4,1.2s0.6,0.5,1.1,0.5C498.4,162.6,498.9,162.4,499.4,162L499.4,162z"
			/>
		<path class="st6" d="M505.1,158.3c0.9,0,1.5,0.4,2,1.1s0.7,1.8,0.7,3.2c0,1.3-0.2,2.4-0.7,3.1s-1.1,1.2-2,1.2
			c-0.9,0-1.5-0.4-2-1.1s-0.7-1.8-0.7-3.2c0-1.3,0.2-2.4,0.7-3.1S504.2,158.3,505.1,158.3z M505.1,166.1c0.6,0,1-0.3,1.3-0.8
			s0.4-1.4,0.4-2.6c0-1.2-0.1-2.1-0.4-2.6s-0.7-0.8-1.3-0.8c-0.6,0-1,0.3-1.3,0.8s-0.4,1.4-0.4,2.6c0,1.2,0.1,2.1,0.4,2.6
			S504.5,166.1,505.1,166.1z M505,161.7c0.2,0,0.5,0.1,0.6,0.3s0.3,0.4,0.3,0.6c0,0.3-0.1,0.5-0.3,0.7s-0.4,0.3-0.6,0.3
			c-0.2,0-0.4-0.1-0.6-0.3s-0.3-0.4-0.3-0.7c0-0.2,0.1-0.5,0.2-0.6S504.8,161.7,505,161.7z"/>
		<path class="st6" d="M511.7,159.9l-0.2,1.6H511l-0.2-1.6v-1.4h0.9V159.9z M513.8,159.9l-0.2,1.6h-0.5l-0.2-1.6v-1.4h0.9V159.9z"/>
		<path class="st6" d="M528.8,166.9h-0.9l-3.6-8.6h0.9L528.8,166.9z"/>
		<path class="st6" d="M89.1,182.9h-3.5V182h3.5V182.9z"/>
		<path class="st6" d="M96.9,185.8H96v-0.9c-0.2,0.3-0.5,0.5-0.8,0.7s-0.7,0.3-1.1,0.3c-0.7,0-1.3-0.3-1.7-0.9s-0.6-1.4-0.6-2.4
			c0-0.9,0.2-1.6,0.6-2.2s1-0.9,1.7-0.9c0.8,0,1.4,0.3,1.9,0.9v-3h0.9V185.8z M96,183.9v-2.5c-0.4-0.7-1-1.1-1.6-1.1
			c-0.5,0-0.9,0.2-1.2,0.7s-0.4,1-0.4,1.7c0,0.7,0.1,1.3,0.4,1.7s0.7,0.7,1.1,0.7c0.2,0,0.5-0.1,0.7-0.2s0.5-0.3,0.7-0.6
			S96,183.9,96,183.9z"/>
		<path class="st6" d="M111.4,185.8h-0.9v-0.9c-0.7,0.7-1.3,1-2.1,1c-1.1,0-1.7-0.7-1.7-2.1v-4.2h0.9v3.9c0,0.5,0.1,0.9,0.2,1.2
			s0.4,0.4,0.8,0.4c0.6,0,1.2-0.3,1.8-1v-4.4h0.9V185.8z"/>
		<path class="st6" d="M117.9,180.5c-0.5-0.2-1-0.3-1.4-0.3c-0.5,0-0.9,0.1-1.2,0.2s-0.4,0.4-0.4,0.7c0,0.2,0.1,0.3,0.2,0.5
			s0.4,0.3,0.8,0.4l0.9,0.3c0.4,0.1,0.7,0.2,1,0.4s0.4,0.3,0.6,0.6s0.2,0.5,0.2,0.8c0,0.6-0.2,1-0.7,1.4s-1.1,0.5-1.9,0.5
			c-0.8,0-1.4-0.1-1.9-0.3l0.2-0.8c0.5,0.2,1.1,0.4,1.6,0.4c0.5,0,0.9-0.1,1.2-0.3s0.5-0.4,0.5-0.8c0-0.2-0.1-0.4-0.2-0.6
			s-0.5-0.3-1.1-0.5c-0.5-0.1-0.8-0.3-1-0.3s-0.4-0.2-0.6-0.3s-0.3-0.3-0.4-0.5s-0.1-0.4-0.1-0.7c0-0.5,0.2-0.9,0.7-1.3
			s1.1-0.5,1.8-0.5c0.5,0,1,0.1,1.6,0.3L117.9,180.5z"/>
		<path class="st6" d="M126,182.7h-4.2c0,0.7,0.2,1.3,0.6,1.7s0.9,0.7,1.5,0.7c0.6,0,1.1-0.1,1.7-0.3l0.2,0.7
			c-0.5,0.2-1.2,0.4-1.9,0.4c-0.9,0-1.6-0.3-2.2-0.9s-0.8-1.4-0.8-2.4c0-1,0.2-1.7,0.7-2.3s1.1-0.9,1.9-0.9c0.7,0,1.3,0.3,1.8,0.8
			s0.7,1.2,0.7,2.1V182.7z M125,182c0-0.5-0.1-0.9-0.4-1.2s-0.6-0.5-1-0.5c-0.5,0-0.9,0.2-1.2,0.5s-0.5,0.7-0.5,1.2H125z"/>
		<path class="st6" d="M133.1,179.8l-0.4,0.9c-0.4-0.2-0.8-0.3-1-0.3c-0.3,0-0.5,0.1-0.8,0.2s-0.5,0.4-0.7,0.7s-0.3,0.4-0.3,0.5v3.9
			h-0.9v-6.1h0.9v1.2c0.5-0.9,1.1-1.4,1.9-1.4C132.2,179.5,132.6,179.6,133.1,179.8z"/>
		<path class="st6" d="M137.8,184.4c0.2,0,0.4,0.1,0.5,0.2s0.2,0.3,0.2,0.5c0,0.2-0.1,0.4-0.2,0.5s-0.3,0.2-0.5,0.2
			c-0.2,0-0.4-0.1-0.5-0.2s-0.2-0.3-0.2-0.5s0.1-0.4,0.2-0.5S137.6,184.4,137.8,184.4z"/>
		<path class="st6" d="M147.4,185.8h-0.9v-3.9c0-0.5-0.1-0.9-0.3-1.2s-0.4-0.4-0.8-0.4c-0.6,0-1.2,0.3-1.8,1v4.4h-0.9v-6.1h0.9v0.9
			c0.7-0.7,1.3-1,2.1-1c1.1,0,1.7,0.7,1.7,2.1V185.8z"/>
		<path class="st6" d="M154.7,185.8h-0.9c-0.1-0.2-0.1-0.6-0.1-1c-0.5,0.8-1.2,1.1-2.1,1.1c-0.5,0-0.9-0.2-1.2-0.5s-0.5-0.7-0.5-1.2
			c0-0.3,0.1-0.6,0.2-0.8s0.3-0.4,0.5-0.6s0.5-0.3,0.9-0.4s0.7-0.2,1.2-0.2l1-0.1v-0.3c0-1-0.5-1.6-1.5-1.6c-0.2,0-0.5,0-0.9,0.1
			s-0.7,0.2-0.9,0.4l-0.2-0.7c0.8-0.4,1.6-0.6,2.3-0.6c1.4,0,2.1,0.7,2.1,2.2v2.6C154.6,184.9,154.6,185.3,154.7,185.8z
			 M153.7,183.9v-1.1c-0.8,0.1-1.4,0.1-1.7,0.2s-0.6,0.2-0.8,0.4s-0.3,0.4-0.3,0.7c0,0.3,0.1,0.5,0.3,0.7s0.4,0.3,0.7,0.3
			c0.3,0,0.6-0.1,1-0.3S153.4,184.3,153.7,183.9z"/>
		<path class="st6" d="M162.3,185.8h-0.9v-4c0-1-0.2-1.5-0.5-1.5c-0.2,0-0.4,0.2-0.6,0.5s-0.3,0.5-0.3,0.6v4.4H159v-4
			c0-1-0.2-1.5-0.5-1.5c-0.2,0-0.4,0.2-0.6,0.5s-0.3,0.5-0.3,0.6v4.4h-0.9v-6.1h0.9v0.9c0.2-0.3,0.4-0.6,0.6-0.8s0.5-0.3,0.7-0.3
			c0.2,0,0.5,0.1,0.7,0.3s0.3,0.5,0.4,0.8c0.2-0.3,0.4-0.6,0.6-0.8s0.5-0.3,0.7-0.3c0.7,0,1.1,0.7,1.1,2V185.8z"/>
		<path class="st6" d="M169.2,182.7H165c0,0.7,0.2,1.3,0.6,1.7s0.9,0.7,1.5,0.7c0.6,0,1.1-0.1,1.7-0.3l0.2,0.7
			c-0.5,0.2-1.2,0.4-1.9,0.4c-0.9,0-1.6-0.3-2.2-0.9s-0.8-1.4-0.8-2.4c0-1,0.2-1.7,0.7-2.3s1.1-0.9,1.9-0.9c0.7,0,1.3,0.3,1.8,0.8
			s0.7,1.2,0.7,2.1V182.7z M168.2,182c0-0.5-0.1-0.9-0.4-1.2s-0.6-0.5-1-0.5c-0.5,0-0.9,0.2-1.2,0.5s-0.5,0.7-0.5,1.2H168.2z"/>
		<path class="st6" d="M176.6,180.7H171V180h5.5V180.7z M176.6,183.1H171v-0.8h5.5V183.1z"/>
		<path class="st6" d="M180.4,178.9l-0.2,1.6h-0.5l-0.2-1.6v-1.4h0.9V178.9z M182.5,178.9l-0.2,1.6h-0.5l-0.2-1.6v-1.4h0.9V178.9z"
			/>
		<path class="st6" d="M191.5,185.8h-1l-0.9-2.9h-2.7l-0.9,2.9h-1l2.7-8.3h1.2L191.5,185.8z M189.3,182l-1.1-3.4l-1.1,3.4H189.3z"/>
		<path class="st6" d="M197.8,185.8h-0.9v-3.9c0-0.5-0.1-0.9-0.3-1.2s-0.4-0.4-0.8-0.4c-0.6,0-1.2,0.3-1.8,1v4.4h-0.9v-6.1h0.9v0.9
			c0.7-0.7,1.3-1,2.1-1c1.1,0,1.7,0.7,1.7,2.1V185.8z"/>
		<path class="st6" d="M205,185.8h-0.9v-0.9c-0.2,0.3-0.5,0.5-0.8,0.7s-0.7,0.3-1.1,0.3c-0.7,0-1.3-0.3-1.7-0.9s-0.6-1.4-0.6-2.4
			c0-0.9,0.2-1.6,0.6-2.2s1-0.9,1.7-0.9c0.8,0,1.4,0.3,1.9,0.9v-3h0.9V185.8z M204.1,183.9v-2.5c-0.4-0.7-1-1.1-1.6-1.1
			c-0.5,0-0.9,0.2-1.2,0.7s-0.4,1-0.4,1.7c0,0.7,0.1,1.3,0.4,1.7s0.7,0.7,1.1,0.7c0.2,0,0.5-0.1,0.7-0.2s0.5-0.3,0.7-0.6
			S204.1,183.9,204.1,183.9z"/>
		<path class="st6" d="M212.3,179.8l-0.4,0.9c-0.4-0.2-0.8-0.3-1-0.3c-0.3,0-0.5,0.1-0.8,0.2s-0.5,0.4-0.7,0.7s-0.3,0.4-0.3,0.5v3.9
			h-0.9v-6.1h0.9v1.2c0.5-0.9,1.1-1.4,1.9-1.4C211.4,179.5,211.8,179.6,212.3,179.8z"/>
		<path class="st6" d="M219.6,182.7h-4.2c0,0.7,0.2,1.3,0.6,1.7s0.9,0.7,1.5,0.7c0.6,0,1.1-0.1,1.7-0.3l0.2,0.7
			c-0.5,0.2-1.2,0.4-1.9,0.4c-0.9,0-1.6-0.3-2.2-0.9s-0.8-1.4-0.8-2.4c0-1,0.2-1.7,0.7-2.3s1.1-0.9,1.9-0.9c0.7,0,1.3,0.3,1.8,0.8
			s0.7,1.2,0.7,2.1V182.7z M218.6,182c0-0.5-0.1-0.9-0.4-1.2s-0.6-0.5-1-0.5c-0.5,0-0.9,0.2-1.2,0.5s-0.5,0.7-0.5,1.2H218.6z"/>
		<path class="st6" d="M227.3,179.7l-0.9,6.1h-0.7l-1.4-3.5l-1.4,3.5h-0.7l-0.9-6.1h0.9c0.3,2.9,0.5,4.3,0.5,4.5l1.1-2.7h0.9
			l1.1,2.6l0.5-4.5H227.3z"/>
		<path class="st6" d="M241,185.8h-1v-4.1h-2.8v4.1h-1v-8.3h1v3.3h2.8v-3.3h1V185.8z"/>
		<path class="st6" d="M248.3,185.8h-0.9c-0.1-0.2-0.1-0.6-0.1-1c-0.5,0.8-1.2,1.1-2.1,1.1c-0.5,0-0.9-0.2-1.2-0.5s-0.5-0.7-0.5-1.2
			c0-0.3,0.1-0.6,0.2-0.8s0.3-0.4,0.5-0.6s0.5-0.3,0.9-0.4s0.7-0.2,1.2-0.2l1-0.1v-0.3c0-1-0.5-1.6-1.5-1.6c-0.2,0-0.5,0-0.9,0.1
			s-0.7,0.2-0.9,0.4l-0.2-0.7c0.8-0.4,1.6-0.6,2.3-0.6c1.4,0,2.1,0.7,2.1,2.2v2.6C248.2,184.9,248.2,185.3,248.3,185.8z
			 M247.3,183.9v-1.1c-0.8,0.1-1.4,0.1-1.7,0.2s-0.6,0.2-0.8,0.4s-0.3,0.4-0.3,0.7c0,0.3,0.1,0.5,0.3,0.7s0.4,0.3,0.7,0.3
			c0.3,0,0.6-0.1,1-0.3S247,184.3,247.3,183.9z"/>
		<path class="st6" d="M255.5,179.8l-0.4,0.9c-0.4-0.2-0.8-0.3-1-0.3c-0.3,0-0.5,0.1-0.8,0.2s-0.5,0.4-0.7,0.7s-0.3,0.4-0.3,0.5v3.9
			h-0.9v-6.1h0.9v1.2c0.5-0.9,1.1-1.4,1.9-1.4C254.6,179.5,255.1,179.6,255.5,179.8z"/>
		<path class="st6" d="M262.7,179.8l-0.4,0.9c-0.4-0.2-0.8-0.3-1-0.3c-0.3,0-0.5,0.1-0.8,0.2s-0.5,0.4-0.7,0.7s-0.3,0.4-0.3,0.5v3.9
			h-0.9v-6.1h0.9v1.2c0.5-0.9,1.1-1.4,1.9-1.4C261.8,179.5,262.3,179.6,262.7,179.8z"/>
		<path class="st6" d="M268.3,185.8h-0.9v-5.3h-1.8v-0.8h2.7V185.8z M267.8,177.3c0.2,0,0.3,0.1,0.4,0.2s0.2,0.3,0.2,0.4
			c0,0.2-0.1,0.3-0.2,0.5s-0.3,0.2-0.4,0.2c-0.2,0-0.3-0.1-0.4-0.2s-0.2-0.3-0.2-0.4s0.1-0.3,0.2-0.4S267.7,177.3,267.8,177.3z"/>
		<path class="st6" d="M277,185.8h-0.9v-3.9c0-0.5-0.1-0.9-0.3-1.2s-0.4-0.4-0.8-0.4c-0.6,0-1.2,0.3-1.8,1v4.4h-0.9v-6.1h0.9v0.9
			c0.7-0.7,1.3-1,2.1-1c1.1,0,1.7,0.7,1.7,2.1V185.8z"/>
		<path class="st6" d="M281.2,183.5c-0.6,0.3-0.9,0.5-0.9,0.7c0,0.1,0.1,0.2,0.2,0.3s0.3,0.1,0.5,0.1l2.1-0.1c0.5,0,0.9,0.1,1.1,0.4
			s0.4,0.6,0.4,1c0,0.7-0.3,1.2-0.9,1.7s-1.3,0.6-2.2,0.6c-0.7,0-1.2-0.1-1.7-0.4s-0.6-0.6-0.6-1.1c0-0.5,0.3-0.9,1-1.2
			c-0.6-0.3-0.8-0.6-0.8-0.9c0-0.4,0.4-0.8,1.1-1.2c-0.3-0.2-0.6-0.5-0.8-0.8s-0.3-0.7-0.3-1c0-0.6,0.2-1,0.6-1.4s0.9-0.6,1.5-0.6
			c0.4,0,0.8,0.1,1.1,0.3l1.8-0.3v0.9h-1.2c0.2,0.3,0.3,0.7,0.3,1.1c0,0.6-0.2,1-0.6,1.4s-0.9,0.6-1.5,0.6
			C281.4,183.5,281.3,183.5,281.2,183.5z M281.6,187.5c0.6,0,1.1-0.1,1.5-0.4s0.6-0.6,0.6-1c0-0.4-0.3-0.6-0.9-0.6c-0.2,0-0.5,0-1,0
			c-0.3,0-0.6,0-0.7,0c-0.1,0-0.2,0.1-0.4,0.2s-0.3,0.3-0.4,0.4s-0.1,0.3-0.1,0.4c0,0.2,0.1,0.4,0.4,0.6S281.1,187.5,281.6,187.5z
			 M281.5,182.8c0.3,0,0.6-0.1,0.8-0.3s0.3-0.5,0.3-0.9c0-0.4-0.1-0.7-0.3-0.9s-0.5-0.3-0.8-0.3c-0.3,0-0.6,0.1-0.8,0.3
			s-0.3,0.5-0.3,0.9c0,0.4,0.1,0.7,0.3,0.9S281.2,182.8,281.5,182.8z"/>
		<path class="st6" d="M291.5,185.5c-0.6,0.3-1.2,0.4-1.8,0.4c-1.1,0-1.6-0.6-1.6-1.7v-3.7h-1.2v-0.8h1.2V178h0.9v1.7h2.1v0.8h-2.1
			v3.5c0,0.4,0.1,0.7,0.2,0.9s0.4,0.3,0.7,0.3c0.5,0,1-0.1,1.5-0.3L291.5,185.5z"/>
		<path class="st6" d="M296.2,179.5c0.8,0,1.5,0.3,2,0.9s0.7,1.4,0.7,2.3c0,1-0.2,1.7-0.7,2.3s-1.2,0.9-2,0.9c-0.8,0-1.5-0.3-2-0.9
			s-0.7-1.4-0.7-2.3c0-1,0.2-1.7,0.7-2.3S295.4,179.5,296.2,179.5z M296.2,185.1c0.6,0,1-0.2,1.3-0.7s0.5-1,0.5-1.7
			c0-0.7-0.2-1.3-0.5-1.7s-0.8-0.7-1.3-0.7c-0.6,0-1,0.2-1.3,0.7s-0.5,1-0.5,1.7c0,0.7,0.2,1.3,0.5,1.7S295.7,185.1,296.2,185.1z"/>
		<path class="st6" d="M305.8,185.8h-0.9v-3.9c0-0.5-0.1-0.9-0.3-1.2s-0.4-0.4-0.8-0.4c-0.6,0-1.2,0.3-1.8,1v4.4h-0.9v-6.1h0.9v0.9
			c0.7-0.7,1.3-1,2.1-1c1.1,0,1.7,0.7,1.7,2.1V185.8z"/>
		<path class="st6" d="M310,178.9l-0.2,1.6h-0.5l-0.2-1.6v-1.4h0.9V178.9z M312.2,178.9l-0.2,1.6h-0.5l-0.2-1.6v-1.4h0.9V178.9z"/>
		<path class="st6" d="M89.1,201.9h-3.5V201h3.5V201.9z"/>
		<path class="st6" d="M96.9,204.8H96v-0.9c-0.2,0.3-0.5,0.5-0.8,0.7s-0.7,0.3-1.1,0.3c-0.7,0-1.3-0.3-1.7-0.9s-0.6-1.4-0.6-2.4
			c0-0.9,0.2-1.6,0.6-2.2s1-0.9,1.7-0.9c0.8,0,1.4,0.3,1.9,0.9v-3h0.9V204.8z M96,202.9v-2.5c-0.4-0.7-1-1.1-1.6-1.1
			c-0.5,0-0.9,0.2-1.2,0.7s-0.4,1-0.4,1.7c0,0.7,0.1,1.3,0.4,1.7s0.7,0.7,1.1,0.7c0.2,0,0.5-0.1,0.7-0.2s0.5-0.3,0.7-0.6
			S96,202.9,96,202.9z"/>
		<path class="st6" d="M111.4,204.8h-0.9v-0.9c-0.7,0.7-1.3,1-2.1,1c-1.1,0-1.7-0.7-1.7-2.1v-4.2h0.9v3.9c0,0.5,0.1,0.9,0.2,1.2
			s0.4,0.4,0.8,0.4c0.6,0,1.2-0.3,1.8-1v-4.4h0.9V204.8z"/>
		<path class="st6" d="M117.9,199.5c-0.5-0.2-1-0.3-1.4-0.3c-0.5,0-0.9,0.1-1.2,0.2s-0.4,0.4-0.4,0.7c0,0.2,0.1,0.3,0.2,0.5
			s0.4,0.3,0.8,0.4l0.9,0.3c0.4,0.1,0.7,0.2,1,0.4s0.4,0.3,0.6,0.6s0.2,0.5,0.2,0.8c0,0.6-0.2,1-0.7,1.4s-1.1,0.5-1.9,0.5
			c-0.8,0-1.4-0.1-1.9-0.3l0.2-0.8c0.5,0.2,1.1,0.4,1.6,0.4c0.5,0,0.9-0.1,1.2-0.3s0.5-0.4,0.5-0.8c0-0.2-0.1-0.4-0.2-0.6
			s-0.5-0.3-1.1-0.5c-0.5-0.1-0.8-0.3-1-0.3s-0.4-0.2-0.6-0.3s-0.3-0.3-0.4-0.5s-0.1-0.4-0.1-0.7c0-0.5,0.2-0.9,0.7-1.3
			s1.1-0.5,1.8-0.5c0.5,0,1,0.1,1.6,0.3L117.9,199.5z"/>
		<path class="st6" d="M126,201.7h-4.2c0,0.7,0.2,1.3,0.6,1.7s0.9,0.7,1.5,0.7c0.6,0,1.1-0.1,1.7-0.3l0.2,0.7
			c-0.5,0.2-1.2,0.4-1.9,0.4c-0.9,0-1.6-0.3-2.2-0.9s-0.8-1.4-0.8-2.4c0-1,0.2-1.7,0.7-2.3s1.1-0.9,1.9-0.9c0.7,0,1.3,0.3,1.8,0.8
			s0.7,1.2,0.7,2.1V201.7z M125,201c0-0.5-0.1-0.9-0.4-1.2s-0.6-0.5-1-0.5c-0.5,0-0.9,0.2-1.2,0.5s-0.5,0.7-0.5,1.2H125z"/>
		<path class="st6" d="M133.1,198.8l-0.4,0.9c-0.4-0.2-0.8-0.3-1-0.3c-0.3,0-0.5,0.1-0.8,0.2s-0.5,0.4-0.7,0.7s-0.3,0.4-0.3,0.5v3.9
			h-0.9v-6.1h0.9v1.2c0.5-0.9,1.1-1.4,1.9-1.4C132.2,198.5,132.6,198.6,133.1,198.8z"/>
		<path class="st6" d="M137.8,203.4c0.2,0,0.4,0.1,0.5,0.2s0.2,0.3,0.2,0.5c0,0.2-0.1,0.4-0.2,0.5s-0.3,0.2-0.5,0.2
			c-0.2,0-0.4-0.1-0.5-0.2s-0.2-0.3-0.2-0.5s0.1-0.4,0.2-0.5S137.6,203.4,137.8,203.4z"/>
		<path class="st6" d="M147.6,201.7h-4.2c0,0.7,0.2,1.3,0.6,1.7s0.9,0.7,1.5,0.7c0.6,0,1.1-0.1,1.7-0.3l0.2,0.7
			c-0.5,0.2-1.2,0.4-1.9,0.4c-0.9,0-1.6-0.3-2.2-0.9s-0.8-1.4-0.8-2.4c0-1,0.2-1.7,0.7-2.3s1.1-0.9,1.9-0.9c0.7,0,1.3,0.3,1.8,0.8
			s0.7,1.2,0.7,2.1V201.7z M146.6,201c0-0.5-0.1-0.9-0.4-1.2s-0.6-0.5-1-0.5c-0.5,0-0.9,0.2-1.2,0.5s-0.5,0.7-0.5,1.2H146.6z"/>
		<path class="st6" d="M155.1,204.8h-0.9v-4c0-1-0.2-1.5-0.5-1.5c-0.2,0-0.4,0.2-0.6,0.5s-0.3,0.5-0.3,0.6v4.4h-0.9v-4
			c0-1-0.2-1.5-0.5-1.5c-0.2,0-0.4,0.2-0.6,0.5s-0.3,0.5-0.3,0.6v4.4h-0.9v-6.1h0.9v0.9c0.2-0.3,0.4-0.6,0.6-0.8s0.5-0.3,0.7-0.3
			c0.2,0,0.5,0.1,0.7,0.3s0.3,0.5,0.4,0.8c0.2-0.3,0.4-0.6,0.6-0.8s0.5-0.3,0.7-0.3c0.7,0,1.1,0.7,1.1,2V204.8z"/>
		<path class="st6" d="M161.9,204.8H161c-0.1-0.2-0.1-0.6-0.1-1c-0.5,0.8-1.2,1.1-2.1,1.1c-0.5,0-0.9-0.2-1.2-0.5s-0.5-0.7-0.5-1.2
			c0-0.3,0.1-0.6,0.2-0.8s0.3-0.4,0.5-0.6s0.5-0.3,0.9-0.4s0.7-0.2,1.2-0.2l1-0.1v-0.3c0-1-0.5-1.6-1.5-1.6c-0.2,0-0.5,0-0.9,0.1
			s-0.7,0.2-0.9,0.4l-0.2-0.7c0.8-0.4,1.6-0.6,2.3-0.6c1.4,0,2.1,0.7,2.1,2.2v2.6C161.8,203.9,161.8,204.3,161.9,204.8z
			 M160.9,202.9v-1.1c-0.8,0.1-1.4,0.1-1.7,0.2s-0.6,0.2-0.8,0.4s-0.3,0.4-0.3,0.7c0,0.3,0.1,0.5,0.3,0.7s0.4,0.3,0.7,0.3
			c0.3,0,0.6-0.1,1-0.3S160.6,203.3,160.9,202.9z"/>
		<path class="st6" d="M167.5,204.8h-0.9v-5.3h-1.8v-0.8h2.7V204.8z M167,196.3c0.2,0,0.3,0.1,0.4,0.2s0.2,0.3,0.2,0.4
			c0,0.2-0.1,0.3-0.2,0.5s-0.3,0.2-0.4,0.2c-0.2,0-0.3-0.1-0.4-0.2s-0.2-0.3-0.2-0.4s0.1-0.3,0.2-0.4S166.9,196.3,167,196.3z"/>
		<path class="st6" d="M175.7,204.8h-2.5v-7.5h-1.6v-0.8h2.5v7.5h1.6V204.8z"/>
		<path class="st6" d="M183.8,199.7h-5.5V199h5.5V199.7z M183.8,202.1h-5.5v-0.8h5.5V202.1z"/>
		<path class="st6" d="M187.6,197.9l-0.2,1.6h-0.5l-0.2-1.6v-1.4h0.9V197.9z M189.7,197.9l-0.2,1.6h-0.5l-0.2-1.6v-1.4h0.9V197.9z"
			/>
		<path class="st6" d="M197.9,204.8H197c-0.1-0.2-0.1-0.6-0.1-1c-0.5,0.8-1.2,1.1-2.1,1.1c-0.5,0-0.9-0.2-1.2-0.5s-0.5-0.7-0.5-1.2
			c0-0.3,0.1-0.6,0.2-0.8s0.3-0.4,0.5-0.6s0.5-0.3,0.9-0.4s0.7-0.2,1.2-0.2l1-0.1v-0.3c0-1-0.5-1.6-1.5-1.6c-0.2,0-0.5,0-0.9,0.1
			s-0.7,0.2-0.9,0.4l-0.2-0.7c0.8-0.4,1.6-0.6,2.3-0.6c1.4,0,2.1,0.7,2.1,2.2v2.6C197.8,203.9,197.8,204.3,197.9,204.8z
			 M196.9,202.9v-1.1c-0.8,0.1-1.4,0.1-1.7,0.2s-0.6,0.2-0.8,0.4s-0.3,0.4-0.3,0.7c0,0.3,0.1,0.5,0.3,0.7s0.4,0.3,0.7,0.3
			c0.3,0,0.6-0.1,1-0.3S196.6,203.3,196.9,202.9z"/>
		<path class="st6" d="M205,204.8h-0.9v-3.9c0-0.5-0.1-0.9-0.3-1.2s-0.4-0.4-0.8-0.4c-0.6,0-1.2,0.3-1.8,1v4.4h-0.9v-8.3h0.9v3.1
			c0.7-0.7,1.3-1,2.1-1c1.1,0,1.7,0.7,1.7,2.1V204.8z"/>
		<path class="st6" d="M212.3,204.8h-0.9c-0.1-0.2-0.1-0.6-0.1-1c-0.5,0.8-1.2,1.1-2.1,1.1c-0.5,0-0.9-0.2-1.2-0.5s-0.5-0.7-0.5-1.2
			c0-0.3,0.1-0.6,0.2-0.8s0.3-0.4,0.5-0.6s0.5-0.3,0.9-0.4s0.7-0.2,1.2-0.2l1-0.1v-0.3c0-1-0.5-1.6-1.5-1.6c-0.2,0-0.5,0-0.9,0.1
			s-0.7,0.2-0.9,0.4l-0.2-0.7c0.8-0.4,1.6-0.6,2.3-0.6c1.4,0,2.1,0.7,2.1,2.2v2.6C212.2,203.9,212.2,204.3,212.3,204.8z
			 M211.3,202.9v-1.1c-0.8,0.1-1.4,0.1-1.7,0.2s-0.6,0.2-0.8,0.4s-0.3,0.4-0.3,0.7c0,0.3,0.1,0.5,0.3,0.7s0.4,0.3,0.7,0.3
			c0.3,0,0.6-0.1,1-0.3S211,203.3,211.3,202.9z"/>
		<path class="st6" d="M219.5,198.8l-0.4,0.9c-0.4-0.2-0.8-0.3-1-0.3c-0.3,0-0.5,0.1-0.8,0.2s-0.5,0.4-0.7,0.7s-0.3,0.4-0.3,0.5v3.9
			h-0.9v-6.1h0.9v1.2c0.5-0.9,1.1-1.4,1.9-1.4C218.6,198.5,219.1,198.6,219.5,198.8z"/>
		<path class="st6" d="M226.7,198.8l-0.4,0.9c-0.4-0.2-0.8-0.3-1-0.3c-0.3,0-0.5,0.1-0.8,0.2s-0.5,0.4-0.7,0.7s-0.3,0.4-0.3,0.5v3.9
			h-0.9v-6.1h0.9v1.2c0.5-0.9,1.1-1.4,1.9-1.4C225.8,198.5,226.3,198.6,226.7,198.8z"/>
		<path class="st6" d="M232.3,204.8h-0.9v-5.3h-1.8v-0.8h2.7V204.8z M231.8,196.3c0.2,0,0.3,0.1,0.4,0.2s0.2,0.3,0.2,0.4
			c0,0.2-0.1,0.3-0.2,0.5s-0.3,0.2-0.4,0.2c-0.2,0-0.3-0.1-0.4-0.2s-0.2-0.3-0.2-0.4s0.1-0.3,0.2-0.4S231.7,196.3,231.8,196.3z"/>
		<path class="st6" d="M241,204.8h-0.9v-3.9c0-0.5-0.1-0.9-0.3-1.2s-0.4-0.4-0.8-0.4c-0.6,0-1.2,0.3-1.8,1v4.4h-0.9v-6.1h0.9v0.9
			c0.7-0.7,1.3-1,2.1-1c1.1,0,1.7,0.7,1.7,2.1V204.8z"/>
		<path class="st6" d="M245.2,202.5c-0.6,0.3-0.9,0.5-0.9,0.7c0,0.1,0.1,0.2,0.2,0.3s0.3,0.1,0.5,0.1l2.1-0.1c0.5,0,0.9,0.1,1.1,0.4
			s0.4,0.6,0.4,1c0,0.7-0.3,1.2-0.9,1.7s-1.3,0.6-2.2,0.6c-0.7,0-1.2-0.1-1.7-0.4s-0.6-0.6-0.6-1.1c0-0.5,0.3-0.9,1-1.2
			c-0.6-0.3-0.8-0.6-0.8-0.9c0-0.4,0.4-0.8,1.1-1.2c-0.3-0.2-0.6-0.5-0.8-0.8s-0.3-0.7-0.3-1c0-0.6,0.2-1,0.6-1.4s0.9-0.6,1.5-0.6
			c0.4,0,0.8,0.1,1.1,0.3l1.8-0.3v0.9h-1.2c0.2,0.3,0.3,0.7,0.3,1.1c0,0.6-0.2,1-0.6,1.4s-0.9,0.6-1.5,0.6
			C245.4,202.5,245.3,202.5,245.2,202.5z M245.6,206.5c0.6,0,1.1-0.1,1.5-0.4s0.6-0.6,0.6-1c0-0.4-0.3-0.6-0.9-0.6c-0.2,0-0.5,0-1,0
			c-0.3,0-0.6,0-0.7,0c-0.1,0-0.2,0.1-0.4,0.2s-0.3,0.3-0.4,0.4s-0.1,0.3-0.1,0.4c0,0.2,0.1,0.4,0.4,0.6S245.1,206.5,245.6,206.5z
			 M245.5,201.8c0.3,0,0.6-0.1,0.8-0.3s0.3-0.5,0.3-0.9c0-0.4-0.1-0.7-0.3-0.9s-0.5-0.3-0.8-0.3c-0.3,0-0.6,0.1-0.8,0.3
			s-0.3,0.5-0.3,0.9c0,0.4,0.1,0.7,0.3,0.9S245.2,201.8,245.5,201.8z"/>
		<path class="st6" d="M255.5,204.5c-0.6,0.3-1.2,0.4-1.8,0.4c-1.1,0-1.6-0.6-1.6-1.7v-3.7h-1.2v-0.8h1.2V197h0.9v1.7h2.1v0.8h-2.1
			v3.5c0,0.4,0.1,0.7,0.2,0.9s0.4,0.3,0.7,0.3c0.5,0,1-0.1,1.5-0.3L255.5,204.5z"/>
		<path class="st6" d="M260.2,198.5c0.8,0,1.5,0.3,2,0.9s0.7,1.4,0.7,2.3c0,1-0.2,1.7-0.7,2.3s-1.2,0.9-2,0.9c-0.8,0-1.5-0.3-2-0.9
			s-0.7-1.4-0.7-2.3c0-1,0.2-1.7,0.7-2.3S259.4,198.5,260.2,198.5z M260.2,204.1c0.6,0,1-0.2,1.3-0.7s0.5-1,0.5-1.7
			c0-0.7-0.2-1.3-0.5-1.7s-0.8-0.7-1.3-0.7c-0.6,0-1,0.2-1.3,0.7s-0.5,1-0.5,1.7c0,0.7,0.2,1.3,0.5,1.7S259.7,204.1,260.2,204.1z"/>
		<path class="st6" d="M269.8,204.8h-0.9v-3.9c0-0.5-0.1-0.9-0.3-1.2s-0.4-0.4-0.8-0.4c-0.6,0-1.2,0.3-1.8,1v4.4h-0.9v-6.1h0.9v0.9
			c0.7-0.7,1.3-1,2.1-1c1.1,0,1.7,0.7,1.7,2.1V204.8z"/>
		<path class="st6" d="M276.7,205.2c-0.6,0.3-1.2,0.5-1.9,0.5c-0.9,0-1.7-0.4-2.3-1.2s-0.9-1.8-0.9-3.1c0-1.6,0.3-2.8,0.9-3.7
			s1.3-1.4,2.3-1.4c0.9,0,1.6,0.4,2.1,1.1s0.8,1.7,0.8,2.9c0,0.9-0.2,1.6-0.5,2.2s-0.8,0.9-1.4,0.9c-0.4,0-0.6-0.2-0.8-0.7
			c-0.2,0.5-0.5,0.7-0.9,0.7c-0.3,0-0.5-0.2-0.7-0.5s-0.3-0.7-0.3-1.2c0-0.8,0.2-1.4,0.5-2s0.8-0.8,1.3-0.8c0.2,0,0.4,0.1,0.6,0.2
			l0-0.1h0.7c-0.2,2.1-0.4,3.2-0.4,3.4c0,0.1,0,0.2,0.1,0.3s0.1,0.1,0.2,0.1c0.3,0,0.5-0.2,0.7-0.7s0.3-1.1,0.3-1.8
			c0-1-0.2-1.8-0.6-2.4s-1-0.9-1.7-0.9c-0.8,0-1.4,0.4-1.8,1.2s-0.7,1.9-0.7,3.3c0,1.1,0.2,2,0.7,2.7s1.1,1,1.8,1
			c0.6,0,1.2-0.1,1.8-0.4L276.7,205.2z M275.3,199.8c-0.1-0.1-0.3-0.2-0.5-0.2c-0.3,0-0.6,0.2-0.8,0.6s-0.3,0.9-0.3,1.5
			c0,0.4,0,0.6,0.1,0.8s0.2,0.3,0.4,0.3c0.2,0,0.4-0.1,0.6-0.3s0.2-0.4,0.2-0.5L275.3,199.8z"/>
		<path class="st6" d="M284.4,201.7h-4.2c0,0.7,0.2,1.3,0.6,1.7s0.9,0.7,1.5,0.7c0.6,0,1.1-0.1,1.7-0.3l0.2,0.7
			c-0.5,0.2-1.2,0.4-1.9,0.4c-0.9,0-1.6-0.3-2.2-0.9s-0.8-1.4-0.8-2.4c0-1,0.2-1.7,0.7-2.3s1.1-0.9,1.9-0.9c0.7,0,1.3,0.3,1.8,0.8
			s0.7,1.2,0.7,2.1V201.7z M283.4,201c0-0.5-0.1-0.9-0.4-1.2s-0.6-0.5-1-0.5c-0.5,0-0.9,0.2-1.2,0.5s-0.5,0.7-0.5,1.2H283.4z"/>
		<path class="st6" d="M291.6,204.8h-1l-1.6-2.4l-1.7,2.4h-1l2.2-3.1l-2.2-3h1l1.6,2.4l1.7-2.4h1l-2.2,3L291.6,204.8z"/>
		<path class="st6" d="M298.8,204.8h-0.9c-0.1-0.2-0.1-0.6-0.1-1c-0.5,0.8-1.2,1.1-2.1,1.1c-0.5,0-0.9-0.2-1.2-0.5s-0.5-0.7-0.5-1.2
			c0-0.3,0.1-0.6,0.2-0.8s0.3-0.4,0.5-0.6s0.5-0.3,0.9-0.4s0.7-0.2,1.2-0.2l1-0.1v-0.3c0-1-0.5-1.6-1.5-1.6c-0.2,0-0.5,0-0.9,0.1
			s-0.7,0.2-0.9,0.4l-0.2-0.7c0.8-0.4,1.6-0.6,2.3-0.6c1.4,0,2.1,0.7,2.1,2.2v2.6C298.6,203.9,298.7,204.3,298.8,204.8z
			 M297.7,202.9v-1.1c-0.8,0.1-1.4,0.1-1.7,0.2s-0.6,0.2-0.8,0.4s-0.3,0.4-0.3,0.7c0,0.3,0.1,0.5,0.3,0.7s0.4,0.3,0.7,0.3
			c0.3,0,0.6-0.1,1-0.3S297.4,203.3,297.7,202.9z"/>
		<path class="st6" d="M306.3,204.8h-0.9v-4c0-1-0.2-1.5-0.5-1.5c-0.2,0-0.4,0.2-0.6,0.5s-0.3,0.5-0.3,0.6v4.4H303v-4
			c0-1-0.2-1.5-0.5-1.5c-0.2,0-0.4,0.2-0.6,0.5s-0.3,0.5-0.3,0.6v4.4h-0.9v-6.1h0.9v0.9c0.2-0.3,0.4-0.6,0.6-0.8s0.5-0.3,0.7-0.3
			c0.2,0,0.5,0.1,0.7,0.3s0.3,0.5,0.4,0.8c0.2-0.3,0.4-0.6,0.6-0.8s0.5-0.3,0.7-0.3c0.7,0,1.1,0.7,1.1,2V204.8z"/>
		<path class="st6" d="M313.1,204.5c-0.6,0.3-1.2,0.4-1.8,0.4c-1.1,0-1.6-0.6-1.6-1.7v-3.7h-1.2v-0.8h1.2V197h0.9v1.7h2.1v0.8h-2.1
			v3.5c0,0.4,0.1,0.7,0.2,0.9s0.4,0.3,0.7,0.3c0.5,0,1-0.1,1.5-0.3L313.1,204.5z"/>
		<path class="st6" d="M320.4,201.7h-4.2c0,0.7,0.2,1.3,0.6,1.7s0.9,0.7,1.5,0.7c0.6,0,1.1-0.1,1.7-0.3l0.2,0.7
			c-0.5,0.2-1.2,0.4-1.9,0.4c-0.9,0-1.6-0.3-2.2-0.9s-0.8-1.4-0.8-2.4c0-1,0.2-1.7,0.7-2.3s1.1-0.9,1.9-0.9c0.7,0,1.3,0.3,1.8,0.8
			s0.7,1.2,0.7,2.1V201.7z M319.4,201c0-0.5-0.1-0.9-0.4-1.2s-0.6-0.5-1-0.5c-0.5,0-0.9,0.2-1.2,0.5s-0.5,0.7-0.5,1.2H319.4z"/>
		<path class="st6" d="M327.4,204.6c-0.5,0.2-1.1,0.4-1.8,0.4c-1,0-1.7-0.3-2.3-0.9s-0.9-1.4-0.9-2.3s0.3-1.7,0.9-2.3
			s1.3-0.9,2.3-0.9c0.6,0,1.2,0.1,1.8,0.3l-0.2,0.8c-0.6-0.2-1.1-0.3-1.5-0.3c-0.7,0-1.2,0.2-1.6,0.7s-0.6,1-0.6,1.8
			c0,0.7,0.2,1.3,0.6,1.7s0.9,0.7,1.6,0.7c0.5,0,1-0.1,1.6-0.3L327.4,204.6z"/>
		<path class="st6" d="M334.6,204.8h-0.9v-3.9c0-0.5-0.1-0.9-0.3-1.2s-0.4-0.4-0.8-0.4c-0.6,0-1.2,0.3-1.8,1v4.4h-0.9v-8.3h0.9v3.1
			c0.7-0.7,1.3-1,2.1-1c1.1,0,1.7,0.7,1.7,2.1V204.8z"/>
		<path class="st6" d="M339.4,203.4c0.2,0,0.4,0.1,0.5,0.2s0.2,0.3,0.2,0.5c0,0.2-0.1,0.4-0.2,0.5s-0.3,0.2-0.5,0.2
			c-0.2,0-0.4-0.1-0.5-0.2s-0.2-0.3-0.2-0.5s0.1-0.4,0.2-0.5S339.2,203.4,339.4,203.4z"/>
		<path class="st6" d="M349,204.6c-0.5,0.2-1.1,0.4-1.8,0.4c-1,0-1.7-0.3-2.3-0.9s-0.9-1.4-0.9-2.3s0.3-1.7,0.9-2.3s1.3-0.9,2.3-0.9
			c0.6,0,1.2,0.1,1.8,0.3l-0.2,0.8c-0.6-0.2-1.1-0.3-1.5-0.3c-0.7,0-1.2,0.2-1.6,0.7s-0.6,1-0.6,1.8c0,0.7,0.2,1.3,0.6,1.7
			s0.9,0.7,1.6,0.7c0.5,0,1-0.1,1.6-0.3L349,204.6z"/>
		<path class="st6" d="M353.8,198.5c0.8,0,1.5,0.3,2,0.9s0.7,1.4,0.7,2.3c0,1-0.2,1.7-0.7,2.3s-1.2,0.9-2,0.9c-0.8,0-1.5-0.3-2-0.9
			s-0.7-1.4-0.7-2.3c0-1,0.2-1.7,0.7-2.3S353,198.5,353.8,198.5z M353.8,204.1c0.6,0,1-0.2,1.3-0.7s0.5-1,0.5-1.7
			c0-0.7-0.2-1.3-0.5-1.7s-0.8-0.7-1.3-0.7c-0.6,0-1,0.2-1.3,0.7s-0.5,1-0.5,1.7c0,0.7,0.2,1.3,0.5,1.7S353.3,204.1,353.8,204.1z"/>
		<path class="st6" d="M363.9,204.8H363v-4c0-1-0.2-1.5-0.5-1.5c-0.2,0-0.4,0.2-0.6,0.5s-0.3,0.5-0.3,0.6v4.4h-0.9v-4
			c0-1-0.2-1.5-0.5-1.5c-0.2,0-0.4,0.2-0.6,0.5s-0.3,0.5-0.3,0.6v4.4h-0.9v-6.1h0.9v0.9c0.2-0.3,0.4-0.6,0.6-0.8s0.5-0.3,0.7-0.3
			c0.2,0,0.5,0.1,0.7,0.3s0.3,0.5,0.4,0.8c0.2-0.3,0.4-0.6,0.6-0.8s0.5-0.3,0.7-0.3c0.7,0,1.1,0.7,1.1,2V204.8z"/>
		<path class="st6" d="M367.6,197.9l-0.2,1.6H367l-0.2-1.6v-1.4h0.9V197.9z M369.8,197.9l-0.2,1.6h-0.5l-0.2-1.6v-1.4h0.9V197.9z"/>
		<path class="st6" d="M384.8,204.9h-0.9l-3.6-8.6h0.9L384.8,204.9z"/>
		<path class="st6" d="M89.1,220.9h-3.5V220h3.5V220.9z"/>
		<path class="st6" d="M96.9,223.8H96v-0.9c-0.2,0.3-0.5,0.5-0.8,0.7s-0.7,0.3-1.1,0.3c-0.7,0-1.3-0.3-1.7-0.9s-0.6-1.4-0.6-2.4
			c0-0.9,0.2-1.6,0.6-2.2s1-0.9,1.7-0.9c0.8,0,1.4,0.3,1.9,0.9v-3h0.9V223.8z M96,221.9v-2.5c-0.4-0.7-1-1.1-1.6-1.1
			c-0.5,0-0.9,0.2-1.2,0.7s-0.4,1-0.4,1.7c0,0.7,0.1,1.3,0.4,1.7s0.7,0.7,1.1,0.7c0.2,0,0.5-0.1,0.7-0.2s0.5-0.3,0.7-0.6
			S96,221.9,96,221.9z"/>
		<path class="st6" d="M107.6,218.4c0.2-0.3,0.5-0.5,0.8-0.7s0.7-0.3,1.1-0.3c0.7,0,1.3,0.3,1.7,0.9s0.6,1.3,0.6,2.2
			c0,0.9-0.2,1.7-0.6,2.4s-1,0.9-1.7,0.9c-0.4,0-0.7-0.1-1.1-0.3s-0.6-0.4-0.8-0.8v0.9h-0.9v-8.3h0.9V218.4z M107.6,219.4v2.5
			c0.2,0.3,0.4,0.6,0.7,0.9s0.6,0.3,0.9,0.3c0.5,0,0.9-0.2,1.2-0.7s0.4-1,0.4-1.7c0-0.7-0.1-1.3-0.4-1.7s-0.7-0.7-1.2-0.7
			C108.6,218.3,108,218.6,107.6,219.4z"/>
		<path class="st6" d="M116.2,217.5c0.8,0,1.5,0.3,2,0.9s0.7,1.4,0.7,2.3c0,1-0.2,1.7-0.7,2.3s-1.2,0.9-2,0.9c-0.8,0-1.5-0.3-2-0.9
			s-0.7-1.4-0.7-2.3c0-1,0.2-1.7,0.7-2.3S115.4,217.5,116.2,217.5z M116.2,223.1c0.6,0,1-0.2,1.3-0.7s0.5-1,0.5-1.7
			c0-0.7-0.2-1.3-0.5-1.7s-0.8-0.7-1.3-0.7c-0.6,0-1,0.2-1.3,0.7s-0.5,1-0.5,1.7c0,0.7,0.2,1.3,0.5,1.7S115.6,223.1,116.2,223.1z"/>
		<path class="st6" d="M125.8,223.8h-0.9v-0.9c-0.2,0.3-0.5,0.5-0.8,0.7s-0.7,0.3-1.1,0.3c-0.7,0-1.3-0.3-1.7-0.9s-0.6-1.4-0.6-2.4
			c0-0.9,0.2-1.6,0.6-2.2s1-0.9,1.7-0.9c0.8,0,1.4,0.3,1.9,0.9v-3h0.9V223.8z M124.8,221.9v-2.5c-0.4-0.7-1-1.1-1.6-1.1
			c-0.5,0-0.9,0.2-1.2,0.7s-0.4,1-0.4,1.7c0,0.7,0.1,1.3,0.4,1.7s0.7,0.7,1.1,0.7c0.2,0,0.5-0.1,0.7-0.2s0.5-0.3,0.7-0.6
			S124.8,221.9,124.8,221.9z"/>
		<path class="st6" d="M133.3,217.7l-2.3,6.1c-0.3,0.9-0.7,1.5-1,1.9s-0.7,0.5-1.1,0.5c-0.4,0-0.7-0.1-1.1-0.2l0.2-0.7
			c0.3,0.1,0.6,0.1,0.8,0.1c0.3,0,0.6-0.1,0.8-0.4s0.4-0.7,0.6-1.2l-2.3-6.1h1l1.7,4.9l1.7-4.9H133.3z"/>
		<path class="st6" d="M140.6,218.7H135V218h5.5V218.7z M140.6,221.1H135v-0.8h5.5V221.1z"/>
		<path class="st6" d="M144.4,216.9l-0.2,1.6h-0.5l-0.2-1.6v-1.4h0.9V216.9z M146.5,216.9l-0.2,1.6h-0.5l-0.2-1.6v-1.4h0.9V216.9z"
			/>
		<path class="st6" d="M154.6,223.8h-0.9v-3.9c0-0.5-0.1-0.9-0.3-1.2s-0.4-0.4-0.8-0.4c-0.6,0-1.2,0.3-1.8,1v4.4h-0.9v-6.1h0.9v0.9
			c0.7-0.7,1.3-1,2.1-1c1.1,0,1.7,0.7,1.7,2.1V223.8z"/>
		<path class="st6" d="M159.4,217.5c0.8,0,1.5,0.3,2,0.9s0.7,1.4,0.7,2.3c0,1-0.2,1.7-0.7,2.3s-1.2,0.9-2,0.9c-0.8,0-1.5-0.3-2-0.9
			s-0.7-1.4-0.7-2.3c0-1,0.2-1.7,0.7-2.3S158.6,217.5,159.4,217.5z M159.4,223.1c0.6,0,1-0.2,1.3-0.7s0.5-1,0.5-1.7
			c0-0.7-0.2-1.3-0.5-1.7s-0.8-0.7-1.3-0.7c-0.6,0-1,0.2-1.3,0.7s-0.5,1-0.5,1.7c0,0.7,0.2,1.3,0.5,1.7S158.9,223.1,159.4,223.1z"/>
		<path class="st6" d="M169,223.5c-0.6,0.3-1.2,0.4-1.8,0.4c-1.1,0-1.6-0.6-1.6-1.7v-3.7h-1.2v-0.8h1.2V216h0.9v1.7h2.1v0.8h-2.1
			v3.5c0,0.4,0.1,0.7,0.2,0.9s0.4,0.3,0.7,0.3c0.5,0,1-0.1,1.5-0.3L169,223.5z"/>
		<path class="st6" d="M179.6,218.4c0.2-0.3,0.5-0.5,0.8-0.7s0.7-0.3,1.1-0.3c0.7,0,1.3,0.3,1.7,0.9s0.6,1.3,0.6,2.2
			c0,0.9-0.2,1.7-0.6,2.4s-1,0.9-1.7,0.9c-0.4,0-0.7-0.1-1.1-0.3s-0.6-0.4-0.8-0.8v0.9h-0.9v-8.3h0.9V218.4z M179.6,219.4v2.5
			c0.2,0.3,0.4,0.6,0.7,0.9s0.6,0.3,0.9,0.3c0.5,0,0.9-0.2,1.2-0.7s0.4-1,0.4-1.7c0-0.7-0.1-1.3-0.4-1.7s-0.7-0.7-1.2-0.7
			C180.6,218.3,180,218.6,179.6,219.4z"/>
		<path class="st6" d="M190.8,220.7h-4.2c0,0.7,0.2,1.3,0.6,1.7s0.9,0.7,1.5,0.7c0.6,0,1.1-0.1,1.7-0.3l0.2,0.7
			c-0.5,0.2-1.2,0.4-1.9,0.4c-0.9,0-1.6-0.3-2.2-0.9s-0.8-1.4-0.8-2.4c0-1,0.2-1.7,0.7-2.3s1.1-0.9,1.9-0.9c0.7,0,1.3,0.3,1.8,0.8
			s0.7,1.2,0.7,2.1V220.7z M189.8,220c0-0.5-0.1-0.9-0.4-1.2s-0.6-0.5-1-0.5c-0.5,0-0.9,0.2-1.2,0.5s-0.5,0.7-0.5,1.2H189.8z"/>
		<path class="st6" d="M196.3,223.8h-0.9v-5.3h-1.8v-0.8h2.7V223.8z M195.8,215.3c0.2,0,0.3,0.1,0.4,0.2s0.2,0.3,0.2,0.4
			c0,0.2-0.1,0.3-0.2,0.5s-0.3,0.2-0.4,0.2c-0.2,0-0.3-0.1-0.4-0.2s-0.2-0.3-0.2-0.4s0.1-0.3,0.2-0.4S195.7,215.3,195.8,215.3z"/>
		<path class="st6" d="M205,223.8h-0.9v-3.9c0-0.5-0.1-0.9-0.3-1.2s-0.4-0.4-0.8-0.4c-0.6,0-1.2,0.3-1.8,1v4.4h-0.9v-6.1h0.9v0.9
			c0.7-0.7,1.3-1,2.1-1c1.1,0,1.7,0.7,1.7,2.1V223.8z"/>
		<path class="st6" d="M209.2,221.5c-0.6,0.3-0.9,0.5-0.9,0.7c0,0.1,0.1,0.2,0.2,0.3s0.3,0.1,0.5,0.1l2.1-0.1c0.5,0,0.9,0.1,1.1,0.4
			s0.4,0.6,0.4,1c0,0.7-0.3,1.2-0.9,1.7s-1.3,0.6-2.2,0.6c-0.7,0-1.2-0.1-1.7-0.4s-0.6-0.6-0.6-1.1c0-0.5,0.3-0.9,1-1.2
			c-0.6-0.3-0.8-0.6-0.8-0.9c0-0.4,0.4-0.8,1.1-1.2c-0.3-0.2-0.6-0.5-0.8-0.8s-0.3-0.7-0.3-1c0-0.6,0.2-1,0.6-1.4s0.9-0.6,1.5-0.6
			c0.4,0,0.8,0.1,1.1,0.3l1.8-0.3v0.9h-1.2c0.2,0.3,0.3,0.7,0.3,1.1c0,0.6-0.2,1-0.6,1.4s-0.9,0.6-1.5,0.6
			C209.4,221.5,209.3,221.5,209.2,221.5z M209.6,225.5c0.6,0,1.1-0.1,1.5-0.4s0.6-0.6,0.6-1c0-0.4-0.3-0.6-0.9-0.6c-0.2,0-0.5,0-1,0
			c-0.3,0-0.6,0-0.7,0c-0.1,0-0.2,0.1-0.4,0.2s-0.3,0.3-0.4,0.4s-0.1,0.3-0.1,0.4c0,0.2,0.1,0.4,0.4,0.6S209.1,225.5,209.6,225.5z
			 M209.5,220.8c0.3,0,0.6-0.1,0.8-0.3s0.3-0.5,0.3-0.9c0-0.4-0.1-0.7-0.3-0.9s-0.5-0.3-0.8-0.3c-0.3,0-0.6,0.1-0.8,0.3
			s-0.3,0.5-0.3,0.9c0,0.4,0.1,0.7,0.3,0.9S209.2,220.8,209.5,220.8z"/>
		<path class="st6" d="M226.7,223.8h-0.9c-0.1-0.2-0.1-0.6-0.1-1c-0.5,0.8-1.2,1.1-2.1,1.1c-0.5,0-0.9-0.2-1.2-0.5s-0.5-0.7-0.5-1.2
			c0-0.3,0.1-0.6,0.2-0.8s0.3-0.4,0.5-0.6s0.5-0.3,0.9-0.4s0.7-0.2,1.2-0.2l1-0.1v-0.3c0-1-0.5-1.6-1.5-1.6c-0.2,0-0.5,0-0.9,0.1
			s-0.7,0.2-0.9,0.4l-0.2-0.7c0.8-0.4,1.6-0.6,2.3-0.6c1.4,0,2.1,0.7,2.1,2.2v2.6C226.6,222.9,226.6,223.3,226.7,223.8z
			 M225.7,221.9v-1.1c-0.8,0.1-1.4,0.1-1.7,0.2s-0.6,0.2-0.8,0.4s-0.3,0.4-0.3,0.7c0,0.3,0.1,0.5,0.3,0.7s0.4,0.3,0.7,0.3
			c0.3,0,0.6-0.1,1-0.3S225.4,222.3,225.7,221.9z"/>
		<path class="st6" d="M230,218.4c0.2-0.3,0.5-0.5,0.8-0.7s0.7-0.3,1.1-0.3c0.7,0,1.3,0.3,1.7,0.9s0.6,1.3,0.6,2.2
			c0,0.9-0.2,1.7-0.6,2.4s-1,0.9-1.7,0.9c-0.4,0-0.7-0.1-1.1-0.3s-0.6-0.4-0.8-0.8v0.9h-0.9v-8.3h0.9V218.4z M230,219.4v2.5
			c0.2,0.3,0.4,0.6,0.7,0.9s0.6,0.3,0.9,0.3c0.5,0,0.9-0.2,1.2-0.7s0.4-1,0.4-1.7c0-0.7-0.1-1.3-0.4-1.7s-0.7-0.7-1.2-0.7
			C231,218.3,230.5,218.6,230,219.4z"/>
		<path class="st6" d="M240.5,223.8h-2.5v-7.5h-1.6v-0.8h2.5v7.5h1.6V223.8z"/>
		<path class="st6" d="M248.4,220.7h-4.2c0,0.7,0.2,1.3,0.6,1.7s0.9,0.7,1.5,0.7c0.6,0,1.1-0.1,1.7-0.3l0.2,0.7
			c-0.5,0.2-1.2,0.4-1.9,0.4c-0.9,0-1.6-0.3-2.2-0.9s-0.8-1.4-0.8-2.4c0-1,0.2-1.7,0.7-2.3s1.1-0.9,1.9-0.9c0.7,0,1.3,0.3,1.8,0.8
			s0.7,1.2,0.7,2.1V220.7z M247.4,220c0-0.5-0.1-0.9-0.4-1.2s-0.6-0.5-1-0.5c-0.5,0-0.9,0.2-1.2,0.5s-0.5,0.7-0.5,1.2H247.4z"/>
		<path class="st6" d="M262.7,223.5c-0.6,0.3-1.2,0.4-1.8,0.4c-1.1,0-1.6-0.6-1.6-1.7v-3.7H258v-0.8h1.2V216h0.9v1.7h2.1v0.8h-2.1
			v3.5c0,0.4,0.1,0.7,0.2,0.9s0.4,0.3,0.7,0.3c0.5,0,1-0.1,1.5-0.3L262.7,223.5z"/>
		<path class="st6" d="M267.4,217.5c0.8,0,1.5,0.3,2,0.9s0.7,1.4,0.7,2.3c0,1-0.2,1.7-0.7,2.3s-1.2,0.9-2,0.9c-0.8,0-1.5-0.3-2-0.9
			s-0.7-1.4-0.7-2.3c0-1,0.2-1.7,0.7-2.3S266.6,217.5,267.4,217.5z M267.4,223.1c0.6,0,1-0.2,1.3-0.7s0.5-1,0.5-1.7
			c0-0.7-0.2-1.3-0.5-1.7s-0.8-0.7-1.3-0.7c-0.6,0-1,0.2-1.3,0.7s-0.5,1-0.5,1.7c0,0.7,0.2,1.3,0.5,1.7S266.9,223.1,267.4,223.1z"/>
		<path class="st6" d="M283.6,218.5c-0.5-0.2-1-0.3-1.4-0.3c-0.5,0-0.9,0.1-1.2,0.2s-0.4,0.4-0.4,0.7c0,0.2,0.1,0.3,0.2,0.5
			s0.4,0.3,0.8,0.4l0.9,0.3c0.4,0.1,0.7,0.2,1,0.4s0.4,0.3,0.6,0.6s0.2,0.5,0.2,0.8c0,0.6-0.2,1-0.7,1.4s-1.1,0.5-1.9,0.5
			c-0.8,0-1.4-0.1-1.9-0.3l0.2-0.8c0.5,0.2,1.1,0.4,1.6,0.4c0.5,0,0.9-0.1,1.2-0.3s0.5-0.4,0.5-0.8c0-0.2-0.1-0.4-0.2-0.6
			s-0.5-0.3-1.1-0.5c-0.5-0.1-0.8-0.3-1-0.3s-0.4-0.2-0.6-0.3s-0.3-0.3-0.4-0.5s-0.1-0.4-0.1-0.7c0-0.5,0.2-0.9,0.7-1.3
			s1.1-0.5,1.8-0.5c0.5,0,1,0.1,1.6,0.3L283.6,218.5z"/>
		<path class="st6" d="M291.7,217.7l-2.3,6.1c-0.3,0.9-0.7,1.5-1,1.9s-0.7,0.5-1.1,0.5c-0.4,0-0.7-0.1-1.1-0.2l0.2-0.7
			c0.3,0.1,0.6,0.1,0.8,0.1c0.3,0,0.6-0.1,0.8-0.4s0.4-0.7,0.6-1.2l-2.3-6.1h1l1.7,4.9l1.7-4.9H291.7z"/>
		<path class="st6" d="M298.6,223.8h-0.9v-3.9c0-0.5-0.1-0.9-0.3-1.2s-0.4-0.4-0.8-0.4c-0.6,0-1.2,0.3-1.8,1v4.4h-0.9v-6.1h0.9v0.9
			c0.7-0.7,1.3-1,2.1-1c1.1,0,1.7,0.7,1.7,2.1V223.8z"/>
		<path class="st6" d="M305.8,223.6c-0.5,0.2-1.1,0.4-1.8,0.4c-1,0-1.7-0.3-2.3-0.9s-0.9-1.4-0.9-2.3s0.3-1.7,0.9-2.3
			s1.3-0.9,2.3-0.9c0.6,0,1.2,0.1,1.8,0.3l-0.2,0.8c-0.6-0.2-1.1-0.3-1.5-0.3c-0.7,0-1.2,0.2-1.6,0.7s-0.6,1-0.6,1.8
			c0,0.7,0.2,1.3,0.6,1.7s0.9,0.7,1.6,0.7c0.5,0,1-0.1,1.6-0.3L305.8,223.6z"/>
		<path class="st6" d="M320.9,217.7l-0.9,6.1h-0.7l-1.4-3.5l-1.4,3.5h-0.7l-0.9-6.1h0.9c0.3,2.9,0.5,4.3,0.5,4.5l1.1-2.7h0.9
			l1.1,2.6l0.5-4.5H320.9z"/>
		<path class="st6" d="M325.9,223.8H325v-5.3h-1.8v-0.8h2.7V223.8z M325.4,215.3c0.2,0,0.3,0.1,0.4,0.2s0.2,0.3,0.2,0.4
			c0,0.2-0.1,0.3-0.2,0.5s-0.3,0.2-0.4,0.2c-0.2,0-0.3-0.1-0.4-0.2s-0.2-0.3-0.2-0.4s0.1-0.3,0.2-0.4S325.3,215.3,325.4,215.3z"/>
		<path class="st6" d="M334.7,223.5c-0.6,0.3-1.2,0.4-1.8,0.4c-1.1,0-1.6-0.6-1.6-1.7v-3.7h-1.2v-0.8h1.2V216h0.9v1.7h2.1v0.8h-2.1
			v3.5c0,0.4,0.1,0.7,0.2,0.9s0.4,0.3,0.7,0.3c0.5,0,1-0.1,1.5-0.3L334.7,223.5z"/>
		<path class="st6" d="M341.8,223.8h-0.9v-3.9c0-0.5-0.1-0.9-0.3-1.2s-0.4-0.4-0.8-0.4c-0.6,0-1.2,0.3-1.8,1v4.4h-0.9v-8.3h0.9v3.1
			c0.7-0.7,1.3-1,2.1-1c1.1,0,1.7,0.7,1.7,2.1V223.8z"/>
		<path class="st6" d="M355.3,221.6c0,0.8-0.2,1.3-0.6,1.7s-1,0.6-1.7,0.6c-0.7,0-1.3-0.1-1.8-0.4l0.3-0.8c0.5,0.2,1,0.3,1.5,0.3
			c0.5,0,0.8-0.1,1.1-0.4s0.3-0.7,0.3-1.2v-6h1V221.6z"/>
		<path class="st6" d="M362.9,223.8h-3.8v-0.8h1.4v-6.6h-1.4v-0.8h3.8v0.8h-1.4v6.6h1.4V223.8z"/>
		<path class="st6" d="M371.5,223.8h-1.2l-2.4-3.8h-1.1v3.8h-1v-8.3h2.3c0.8,0,1.4,0.2,1.9,0.6s0.7,0.9,0.7,1.6c0,0.5-0.2,1-0.5,1.3
			s-0.8,0.7-1.4,0.8L371.5,223.8z M366.8,219.2h1.2c0.5,0,0.9-0.1,1.2-0.4s0.5-0.6,0.5-1c0-0.9-0.6-1.4-1.7-1.4h-1.2V219.2z"/>
		<path class="st6" d="M378.7,223.8h-1l-0.9-2.9h-2.7l-0.9,2.9h-1l2.7-8.3h1.2L378.7,223.8z M376.5,220l-1.1-3.4l-1.1,3.4H376.5z"/>
		<path class="st6" d="M390.7,223.8h-0.9v-5.3H388v-0.8h2.7V223.8z M390.2,215.3c0.2,0,0.3,0.1,0.4,0.2s0.2,0.3,0.2,0.4
			c0,0.2-0.1,0.3-0.2,0.5s-0.3,0.2-0.4,0.2c-0.2,0-0.3-0.1-0.4-0.2s-0.2-0.3-0.2-0.4s0.1-0.3,0.2-0.4S390.1,215.3,390.2,215.3z"/>
		<path class="st6" d="M398.8,218.5c-0.5-0.2-1-0.3-1.4-0.3c-0.5,0-0.9,0.1-1.2,0.2s-0.4,0.4-0.4,0.7c0,0.2,0.1,0.3,0.2,0.5
			s0.4,0.3,0.8,0.4l0.9,0.3c0.4,0.1,0.7,0.2,1,0.4s0.4,0.3,0.6,0.6s0.2,0.5,0.2,0.8c0,0.6-0.2,1-0.7,1.4s-1.1,0.5-1.9,0.5
			c-0.8,0-1.4-0.1-1.9-0.3l0.2-0.8c0.5,0.2,1.1,0.4,1.6,0.4c0.5,0,0.9-0.1,1.2-0.3s0.5-0.4,0.5-0.8c0-0.2-0.1-0.4-0.2-0.6
			s-0.5-0.3-1.1-0.5c-0.5-0.1-0.8-0.3-1-0.3s-0.4-0.2-0.6-0.3s-0.3-0.3-0.4-0.5s-0.1-0.4-0.1-0.7c0-0.5,0.2-0.9,0.7-1.3
			s1.1-0.5,1.8-0.5c0.5,0,1,0.1,1.6,0.3L398.8,218.5z"/>
		<path class="st6" d="M414,223.8h-0.9c-0.1-0.2-0.1-0.6-0.1-1c-0.5,0.8-1.2,1.1-2.1,1.1c-0.5,0-0.9-0.2-1.2-0.5s-0.5-0.7-0.5-1.2
			c0-0.3,0.1-0.6,0.2-0.8s0.3-0.4,0.5-0.6s0.5-0.3,0.9-0.4s0.7-0.2,1.2-0.2l1-0.1v-0.3c0-1-0.5-1.6-1.5-1.6c-0.2,0-0.5,0-0.9,0.1
			s-0.7,0.2-0.9,0.4l-0.2-0.7c0.8-0.4,1.6-0.6,2.3-0.6c1.4,0,2.1,0.7,2.1,2.2v2.6C413.8,222.9,413.9,223.3,414,223.8z M412.9,221.9
			v-1.1c-0.8,0.1-1.4,0.1-1.7,0.2s-0.6,0.2-0.8,0.4s-0.3,0.4-0.3,0.7c0,0.3,0.1,0.5,0.3,0.7s0.4,0.3,0.7,0.3c0.3,0,0.6-0.1,1-0.3
			S412.7,222.3,412.9,221.9z"/>
		<path class="st6" d="M428.3,217.8l-0.4,0.9c-0.4-0.2-0.8-0.3-1-0.3c-0.3,0-0.5,0.1-0.8,0.2s-0.5,0.4-0.7,0.7s-0.3,0.4-0.3,0.5v3.9
			h-0.9v-6.1h0.9v1.2c0.5-0.9,1.1-1.4,1.9-1.4C427.4,217.5,427.9,217.6,428.3,217.8z"/>
		<path class="st6" d="M435.6,220.7h-4.2c0,0.7,0.2,1.3,0.6,1.7s0.9,0.7,1.5,0.7c0.6,0,1.1-0.1,1.7-0.3l0.2,0.7
			c-0.5,0.2-1.2,0.4-1.9,0.4c-0.9,0-1.6-0.3-2.2-0.9s-0.8-1.4-0.8-2.4c0-1,0.2-1.7,0.7-2.3s1.1-0.9,1.9-0.9c0.7,0,1.3,0.3,1.8,0.8
			s0.7,1.2,0.7,2.1V220.7z M434.6,220c0-0.5-0.1-0.9-0.4-1.2s-0.6-0.5-1-0.5c-0.5,0-0.9,0.2-1.2,0.5s-0.5,0.7-0.5,1.2H434.6z"/>
		<path class="st6" d="M442.8,223.8h-0.9c-0.1-0.2-0.1-0.6-0.1-1c-0.5,0.8-1.2,1.1-2.1,1.1c-0.5,0-0.9-0.2-1.2-0.5s-0.5-0.7-0.5-1.2
			c0-0.3,0.1-0.6,0.2-0.8s0.3-0.4,0.5-0.6s0.5-0.3,0.9-0.4s0.7-0.2,1.2-0.2l1-0.1v-0.3c0-1-0.5-1.6-1.5-1.6c-0.2,0-0.5,0-0.9,0.1
			s-0.7,0.2-0.9,0.4l-0.2-0.7c0.8-0.4,1.6-0.6,2.3-0.6c1.4,0,2.1,0.7,2.1,2.2v2.6C442.6,222.9,442.7,223.3,442.8,223.8z
			 M441.7,221.9v-1.1c-0.8,0.1-1.4,0.1-1.7,0.2s-0.6,0.2-0.8,0.4s-0.3,0.4-0.3,0.7c0,0.3,0.1,0.5,0.3,0.7s0.4,0.3,0.7,0.3
			c0.3,0,0.6-0.1,1-0.3S441.5,222.3,441.7,221.9z"/>
		<path class="st6" d="M449.4,223.8h-2.5v-7.5h-1.6v-0.8h2.5v7.5h1.6V223.8z"/>
		<path class="st6" d="M464.2,223.8h-0.9v-0.9c-0.2,0.3-0.5,0.5-0.8,0.7s-0.7,0.3-1.1,0.3c-0.7,0-1.3-0.3-1.7-0.9s-0.6-1.4-0.6-2.4
			c0-0.9,0.2-1.6,0.6-2.2s1-0.9,1.7-0.9c0.8,0,1.4,0.3,1.9,0.9v-3h0.9V223.8z M463.3,221.9v-2.5c-0.4-0.7-1-1.1-1.6-1.1
			c-0.5,0-0.9,0.2-1.2,0.7s-0.4,1-0.4,1.7c0,0.7,0.1,1.3,0.4,1.7s0.7,0.7,1.1,0.7c0.2,0,0.5-0.1,0.7-0.2s0.5-0.3,0.7-0.6
			S463.3,221.9,463.3,221.9z"/>
		<path class="st6" d="M471.6,220.7h-4.2c0,0.7,0.2,1.3,0.6,1.7s0.9,0.7,1.5,0.7c0.6,0,1.1-0.1,1.7-0.3l0.2,0.7
			c-0.5,0.2-1.2,0.4-1.9,0.4c-0.9,0-1.6-0.3-2.2-0.9s-0.8-1.4-0.8-2.4c0-1,0.2-1.7,0.7-2.3s1.1-0.9,1.9-0.9c0.7,0,1.3,0.3,1.8,0.8
			s0.7,1.2,0.7,2.1V220.7z M470.6,220c0-0.5-0.1-0.9-0.4-1.2s-0.6-0.5-1-0.5c-0.5,0-0.9,0.2-1.2,0.5s-0.5,0.7-0.5,1.2H470.6z"/>
		<path class="st6" d="M478.8,223.8h-0.9c-0.1-0.2-0.1-0.6-0.1-1c-0.5,0.8-1.2,1.1-2.1,1.1c-0.5,0-0.9-0.2-1.2-0.5s-0.5-0.7-0.5-1.2
			c0-0.3,0.1-0.6,0.2-0.8s0.3-0.4,0.5-0.6s0.5-0.3,0.9-0.4s0.7-0.2,1.2-0.2l1-0.1v-0.3c0-1-0.5-1.6-1.5-1.6c-0.2,0-0.5,0-0.9,0.1
			s-0.7,0.2-0.9,0.4l-0.2-0.7c0.8-0.4,1.6-0.6,2.3-0.6c1.4,0,2.1,0.7,2.1,2.2v2.6C478.6,222.9,478.7,223.3,478.8,223.8z
			 M477.7,221.9v-1.1c-0.8,0.1-1.4,0.1-1.7,0.2s-0.6,0.2-0.8,0.4s-0.3,0.4-0.3,0.7c0,0.3,0.1,0.5,0.3,0.7s0.4,0.3,0.7,0.3
			c0.3,0,0.6-0.1,1-0.3S477.5,222.3,477.7,221.9z"/>
		<path class="st6" d="M485.4,223.8h-2.5v-7.5h-1.6v-0.8h2.5v7.5h1.6V223.8z"/>
		<path class="st6" d="M489.2,218.4c0.2-0.3,0.5-0.5,0.8-0.7s0.7-0.3,1.1-0.3c0.7,0,1.3,0.3,1.7,0.9s0.6,1.3,0.6,2.2
			c0,0.9-0.2,1.7-0.6,2.4s-1,0.9-1.7,0.9c-0.4,0-0.7-0.1-1.1-0.3s-0.6-0.4-0.8-0.8v0.9h-0.9v-8.3h0.9V218.4z M489.2,219.4v2.5
			c0.2,0.3,0.4,0.6,0.7,0.9s0.6,0.3,0.9,0.3c0.5,0,0.9-0.2,1.2-0.7s0.4-1,0.4-1.7c0-0.7-0.1-1.3-0.4-1.7s-0.7-0.7-1.2-0.7
			C490.2,218.3,489.7,218.6,489.2,219.4z"/>
		<path class="st6" d="M500.3,217.8l-0.4,0.9c-0.4-0.2-0.8-0.3-1-0.3c-0.3,0-0.5,0.1-0.8,0.2s-0.5,0.4-0.7,0.7s-0.3,0.4-0.3,0.5v3.9
			h-0.9v-6.1h0.9v1.2c0.5-0.9,1.1-1.4,1.9-1.4C499.4,217.5,499.9,217.6,500.3,217.8z"/>
		<path class="st6" d="M507.6,220.7h-4.2c0,0.7,0.2,1.3,0.6,1.7s0.9,0.7,1.5,0.7c0.6,0,1.1-0.1,1.7-0.3l0.2,0.7
			c-0.5,0.2-1.2,0.4-1.9,0.4c-0.9,0-1.6-0.3-2.2-0.9s-0.8-1.4-0.8-2.4c0-1,0.2-1.7,0.7-2.3s1.1-0.9,1.9-0.9c0.7,0,1.3,0.3,1.8,0.8
			s0.7,1.2,0.7,2.1V220.7z M506.6,220c0-0.5-0.1-0.9-0.4-1.2s-0.6-0.5-1-0.5c-0.5,0-0.9,0.2-1.2,0.5s-0.5,0.7-0.5,1.2H506.6z"/>
		<path class="st6" d="M514.8,223.8h-0.9c-0.1-0.2-0.1-0.6-0.1-1c-0.5,0.8-1.2,1.1-2.1,1.1c-0.5,0-0.9-0.2-1.2-0.5s-0.5-0.7-0.5-1.2
			c0-0.3,0.1-0.6,0.2-0.8s0.3-0.4,0.5-0.6s0.5-0.3,0.9-0.4s0.7-0.2,1.2-0.2l1-0.1v-0.3c0-1-0.5-1.6-1.5-1.6c-0.2,0-0.5,0-0.9,0.1
			s-0.7,0.2-0.9,0.4l-0.2-0.7c0.8-0.4,1.6-0.6,2.3-0.6c1.4,0,2.1,0.7,2.1,2.2v2.6C514.6,222.9,514.7,223.3,514.8,223.8z
			 M513.7,221.9v-1.1c-0.8,0.1-1.4,0.1-1.7,0.2s-0.6,0.2-0.8,0.4s-0.3,0.4-0.3,0.7c0,0.3,0.1,0.5,0.3,0.7s0.4,0.3,0.7,0.3
			c0.3,0,0.6-0.1,1-0.3S513.5,222.3,513.7,221.9z"/>
		<path class="st6" d="M522.4,223.8h-1.2l-2.6-3l-0.6,0.5v2.5h-0.9v-8.3h0.9v4.7l2.9-2.6h1.2l-2.8,2.5L522.4,223.8z"/>
		<path class="st6" d="M529.2,220.7H525c0,0.7,0.2,1.3,0.6,1.7s0.9,0.7,1.5,0.7c0.6,0,1.1-0.1,1.7-0.3l0.2,0.7
			c-0.5,0.2-1.2,0.4-1.9,0.4c-0.9,0-1.6-0.3-2.2-0.9s-0.8-1.4-0.8-2.4c0-1,0.2-1.7,0.7-2.3s1.1-0.9,1.9-0.9c0.7,0,1.3,0.3,1.8,0.8
			s0.7,1.2,0.7,2.1V220.7z M528.2,220c0-0.5-0.1-0.9-0.4-1.2s-0.6-0.5-1-0.5c-0.5,0-0.9,0.2-1.2,0.5s-0.5,0.7-0.5,1.2H528.2z"/>
		<path class="st6" d="M536.3,217.8l-0.4,0.9c-0.4-0.2-0.8-0.3-1-0.3c-0.3,0-0.5,0.1-0.8,0.2s-0.5,0.4-0.7,0.7s-0.3,0.4-0.3,0.5v3.9
			h-0.9v-6.1h0.9v1.2c0.5-0.9,1.1-1.4,1.9-1.4C535.5,217.5,535.9,217.6,536.3,217.8z"/>
		<path class="st6" d="M541,222.4c0.2,0,0.4,0.1,0.5,0.2s0.2,0.3,0.2,0.5c0,0.2-0.1,0.4-0.2,0.5s-0.3,0.2-0.5,0.2
			c-0.2,0-0.4-0.1-0.5-0.2s-0.2-0.3-0.2-0.5s0.1-0.4,0.2-0.5S540.8,222.4,541,222.4z"/>
		<path class="st6" d="M97.9,234.5l-1.1,8.3H96l-1.4-4.7l-1.4,4.7h-0.9l-1-8.3h0.9l0.7,6.7l1.2-4.1h1l1.2,4.1l0.7-6.7H97.9z"/>
		<path class="st6" d="M102.6,242.8h-0.9v-5.3h-1.8v-0.8h2.7V242.8z M102.2,234.3c0.2,0,0.3,0.1,0.4,0.2s0.2,0.3,0.2,0.4
			c0,0.2-0.1,0.3-0.2,0.5s-0.3,0.2-0.4,0.2c-0.2,0-0.3-0.1-0.4-0.2s-0.2-0.3-0.2-0.4s0.1-0.3,0.2-0.4S102,234.3,102.2,234.3z"/>
		<path class="st6" d="M111.4,242.5c-0.6,0.3-1.2,0.4-1.8,0.4c-1.1,0-1.6-0.6-1.6-1.7v-3.7h-1.2v-0.8h1.2V235h0.9v1.7h2.1v0.8h-2.1
			v3.5c0,0.4,0.1,0.7,0.2,0.9s0.4,0.3,0.7,0.3c0.5,0,1-0.1,1.5-0.3L111.4,242.5z"/>
		<path class="st6" d="M118.6,242.8h-0.9v-3.9c0-0.5-0.1-0.9-0.3-1.2s-0.4-0.4-0.8-0.4c-0.6,0-1.2,0.3-1.8,1v4.4h-0.9v-8.3h0.9v3.1
			c0.7-0.7,1.3-1,2.1-1c1.1,0,1.7,0.7,1.7,2.1V242.8z"/>
		<path class="st6" d="M123.4,236.5c0.8,0,1.5,0.3,2,0.9s0.7,1.4,0.7,2.3c0,1-0.2,1.7-0.7,2.3s-1.2,0.9-2,0.9c-0.8,0-1.5-0.3-2-0.9
			s-0.7-1.4-0.7-2.3c0-1,0.2-1.7,0.7-2.3S122.6,236.5,123.4,236.5z M123.4,242.1c0.6,0,1-0.2,1.3-0.7s0.5-1,0.5-1.7
			c0-0.7-0.2-1.3-0.5-1.7s-0.8-0.7-1.3-0.7c-0.6,0-1,0.2-1.3,0.7s-0.5,1-0.5,1.7c0,0.7,0.2,1.3,0.5,1.7S122.8,242.1,123.4,242.1z"/>
		<path class="st6" d="M133,242.8H132v-0.9c-0.7,0.7-1.3,1-2.1,1c-1.1,0-1.7-0.7-1.7-2.1v-4.2h0.9v3.9c0,0.5,0.1,0.9,0.2,1.2
			s0.4,0.4,0.8,0.4c0.6,0,1.2-0.3,1.8-1v-4.4h0.9V242.8z"/>
		<path class="st6" d="M140.2,242.5c-0.6,0.3-1.2,0.4-1.8,0.4c-1.1,0-1.6-0.6-1.6-1.7v-3.7h-1.2v-0.8h1.2V235h0.9v1.7h2.1v0.8h-2.1
			v3.5c0,0.4,0.1,0.7,0.2,0.9s0.4,0.3,0.7,0.3c0.5,0,1-0.1,1.5-0.3L140.2,242.5z"/>
		<path class="st6" d="M153.1,242.8h-0.9v-5.3h-1.8v-0.8h2.7V242.8z M152.6,234.3c0.2,0,0.3,0.1,0.4,0.2s0.2,0.3,0.2,0.4
			c0,0.2-0.1,0.3-0.2,0.5s-0.3,0.2-0.4,0.2c-0.2,0-0.3-0.1-0.4-0.2s-0.2-0.3-0.2-0.4s0.1-0.3,0.2-0.4S152.4,234.3,152.6,234.3z"/>
		<path class="st6" d="M161.8,242.5c-0.6,0.3-1.2,0.4-1.8,0.4c-1.1,0-1.6-0.6-1.6-1.7v-3.7h-1.2v-0.8h1.2V235h0.9v1.7h2.1v0.8h-2.1
			v3.5c0,0.4,0.1,0.7,0.2,0.9s0.4,0.3,0.7,0.3c0.5,0,1-0.1,1.5-0.3L161.8,242.5z"/>
		<path class="st6" d="M176.9,236.7l-0.9,6.1h-0.7l-1.4-3.5l-1.4,3.5h-0.7l-0.9-6.1h0.9c0.3,2.9,0.5,4.3,0.5,4.5l1.1-2.7h0.9
			l1.1,2.6l0.5-4.5H176.9z"/>
		<path class="st6" d="M183.6,239.7h-4.2c0,0.7,0.2,1.3,0.6,1.7s0.9,0.7,1.5,0.7c0.6,0,1.1-0.1,1.7-0.3l0.2,0.7
			c-0.5,0.2-1.2,0.4-1.9,0.4c-0.9,0-1.6-0.3-2.2-0.9s-0.8-1.4-0.8-2.4c0-1,0.2-1.7,0.7-2.3s1.1-0.9,1.9-0.9c0.7,0,1.3,0.3,1.8,0.8
			s0.7,1.2,0.7,2.1V239.7z M182.6,239c0-0.5-0.1-0.9-0.4-1.2s-0.6-0.5-1-0.5c-0.5,0-0.9,0.2-1.2,0.5s-0.5,0.7-0.5,1.2H182.6z"/>
		<path class="st6" d="M188.1,235.8c-0.2,0-0.4-0.1-0.5-0.2s-0.2-0.3-0.2-0.5c0-0.2,0.1-0.4,0.2-0.5s0.3-0.2,0.5-0.2
			c0.2,0,0.4,0.1,0.6,0.3s0.2,0.4,0.2,0.6c0,0.8-0.4,1.4-1.3,1.8l-0.2-0.4C187.9,236.4,188.1,236.1,188.1,235.8z"/>
		<path class="st6" d="M197.3,242.8h-2.5v-7.5h-1.6v-0.8h2.5v7.5h1.6V242.8z"/>
		<path class="st6" d="M204.5,242.8H202v-7.5h-1.6v-0.8h2.5v7.5h1.6V242.8z"/>
		<path class="st6" d="M218.7,237.5c-0.5-0.2-1-0.3-1.4-0.3c-0.5,0-0.9,0.1-1.2,0.2s-0.4,0.4-0.4,0.7c0,0.2,0.1,0.3,0.2,0.5
			s0.4,0.3,0.8,0.4l0.9,0.3c0.4,0.1,0.7,0.2,1,0.4s0.4,0.3,0.6,0.6s0.2,0.5,0.2,0.8c0,0.6-0.2,1-0.7,1.4s-1.1,0.5-1.9,0.5
			c-0.8,0-1.4-0.1-1.9-0.3l0.2-0.8c0.5,0.2,1.1,0.4,1.6,0.4c0.5,0,0.9-0.1,1.2-0.3s0.5-0.4,0.5-0.8c0-0.2-0.1-0.4-0.2-0.6
			s-0.5-0.3-1.1-0.5c-0.5-0.1-0.8-0.3-1-0.3s-0.4-0.2-0.6-0.3s-0.3-0.3-0.4-0.5s-0.1-0.4-0.1-0.7c0-0.5,0.2-0.9,0.7-1.3
			s1.1-0.5,1.8-0.5c0.5,0,1,0.1,1.6,0.3L218.7,237.5z"/>
		<path class="st6" d="M222.8,237.4c0.2-0.3,0.5-0.5,0.8-0.7s0.7-0.3,1.1-0.3c0.7,0,1.3,0.3,1.7,0.9s0.6,1.3,0.6,2.3
			c0,0.9-0.2,1.7-0.6,2.3s-1,0.9-1.7,0.9c-0.4,0-0.7-0.1-1.1-0.3s-0.6-0.4-0.8-0.8v3.3h-0.9v-8.5h0.9V237.4z M222.8,238.4v2.5
			c0.2,0.3,0.4,0.6,0.7,0.9s0.6,0.3,0.9,0.3c0.5,0,0.9-0.2,1.2-0.7s0.4-1,0.4-1.7c0-0.7-0.1-1.3-0.4-1.7s-0.7-0.7-1.2-0.7
			C223.8,237.3,223.2,237.6,222.8,238.4z"/>
		<path class="st6" d="M234,239.7h-4.2c0,0.7,0.2,1.3,0.6,1.7s0.9,0.7,1.5,0.7c0.6,0,1.1-0.1,1.7-0.3l0.2,0.7
			c-0.5,0.2-1.2,0.4-1.9,0.4c-0.9,0-1.6-0.3-2.2-0.9s-0.8-1.4-0.8-2.4c0-1,0.2-1.7,0.7-2.3s1.1-0.9,1.9-0.9c0.7,0,1.3,0.3,1.8,0.8
			s0.7,1.2,0.7,2.1V239.7z M233,239c0-0.5-0.1-0.9-0.4-1.2s-0.6-0.5-1-0.5c-0.5,0-0.9,0.2-1.2,0.5s-0.5,0.7-0.5,1.2H233z"/>
		<path class="st6" d="M241,242.8h-0.9v-3.9c0-0.5-0.1-0.9-0.3-1.2s-0.4-0.4-0.8-0.4c-0.6,0-1.2,0.3-1.8,1v4.4h-0.9v-6.1h0.9v0.9
			c0.7-0.7,1.3-1,2.1-1c1.1,0,1.7,0.7,1.7,2.1V242.8z"/>
		<path class="st6" d="M248.2,242.8h-0.9v-0.9c-0.2,0.3-0.5,0.5-0.8,0.7s-0.7,0.3-1.1,0.3c-0.7,0-1.3-0.3-1.7-0.9s-0.6-1.4-0.6-2.4
			c0-0.9,0.2-1.6,0.6-2.2s1-0.9,1.7-0.9c0.8,0,1.4,0.3,1.9,0.9v-3h0.9V242.8z M247.3,240.9v-2.5c-0.4-0.7-1-1.1-1.6-1.1
			c-0.5,0-0.9,0.2-1.2,0.7s-0.4,1-0.4,1.7c0,0.7,0.1,1.3,0.4,1.7s0.7,0.7,1.1,0.7c0.2,0,0.5-0.1,0.7-0.2s0.5-0.3,0.7-0.6
			S247.3,240.9,247.3,240.9z"/>
		<path class="st6" d="M262.7,242.5c-0.6,0.3-1.2,0.4-1.8,0.4c-1.1,0-1.6-0.6-1.6-1.7v-3.7H258v-0.8h1.2V235h0.9v1.7h2.1v0.8h-2.1
			v3.5c0,0.4,0.1,0.7,0.2,0.9s0.4,0.3,0.7,0.3c0.5,0,1-0.1,1.5-0.3L262.7,242.5z"/>
		<path class="st6" d="M267.4,236.5c0.8,0,1.5,0.3,2,0.9s0.7,1.4,0.7,2.3c0,1-0.2,1.7-0.7,2.3s-1.2,0.9-2,0.9c-0.8,0-1.5-0.3-2-0.9
			s-0.7-1.4-0.7-2.3c0-1,0.2-1.7,0.7-2.3S266.6,236.5,267.4,236.5z M267.4,242.1c0.6,0,1-0.2,1.3-0.7s0.5-1,0.5-1.7
			c0-0.7-0.2-1.3-0.5-1.7s-0.8-0.7-1.3-0.7c-0.6,0-1,0.2-1.3,0.7s-0.5,1-0.5,1.7c0,0.7,0.2,1.3,0.5,1.7S266.9,242.1,267.4,242.1z"/>
		<path class="st6" d="M274.6,236.5c0.8,0,1.5,0.3,2,0.9s0.7,1.4,0.7,2.3c0,1-0.2,1.7-0.7,2.3s-1.2,0.9-2,0.9c-0.8,0-1.5-0.3-2-0.9
			s-0.7-1.4-0.7-2.3c0-1,0.2-1.7,0.7-2.3S273.8,236.5,274.6,236.5z M274.6,242.1c0.6,0,1-0.2,1.3-0.7s0.5-1,0.5-1.7
			c0-0.7-0.2-1.3-0.5-1.7s-0.8-0.7-1.3-0.7c-0.6,0-1,0.2-1.3,0.7s-0.5,1-0.5,1.7c0,0.7,0.2,1.3,0.5,1.7S274.1,242.1,274.6,242.1z"/>
		<path class="st6" d="M291.9,242.8H291v-4c0-1-0.2-1.5-0.5-1.5c-0.2,0-0.4,0.2-0.6,0.5s-0.3,0.5-0.3,0.6v4.4h-0.9v-4
			c0-1-0.2-1.5-0.5-1.5c-0.2,0-0.4,0.2-0.6,0.5s-0.3,0.5-0.3,0.6v4.4h-0.9v-6.1h0.9v0.9c0.2-0.3,0.4-0.6,0.6-0.8s0.5-0.3,0.7-0.3
			c0.2,0,0.5,0.1,0.7,0.3s0.3,0.5,0.4,0.8c0.2-0.3,0.4-0.6,0.6-0.8s0.5-0.3,0.7-0.3c0.7,0,1.1,0.7,1.1,2V242.8z"/>
		<path class="st6" d="M298.6,242.8h-0.9v-0.9c-0.7,0.7-1.3,1-2.1,1c-1.1,0-1.7-0.7-1.7-2.1v-4.2h0.9v3.9c0,0.5,0.1,0.9,0.2,1.2
			s0.4,0.4,0.8,0.4c0.6,0,1.2-0.3,1.8-1v-4.4h0.9V242.8z"/>
		<path class="st6" d="M305.8,242.6c-0.5,0.2-1.1,0.4-1.8,0.4c-1,0-1.7-0.3-2.3-0.9s-0.9-1.4-0.9-2.3s0.3-1.7,0.9-2.3
			s1.3-0.9,2.3-0.9c0.6,0,1.2,0.1,1.8,0.3l-0.2,0.8c-0.6-0.2-1.1-0.3-1.5-0.3c-0.7,0-1.2,0.2-1.6,0.7s-0.6,1-0.6,1.8
			c0,0.7,0.2,1.3,0.6,1.7s0.9,0.7,1.6,0.7c0.5,0,1-0.1,1.6-0.3L305.8,242.6z"/>
		<path class="st6" d="M313,242.8h-0.9v-3.9c0-0.5-0.1-0.9-0.3-1.2s-0.4-0.4-0.8-0.4c-0.6,0-1.2,0.3-1.8,1v4.4h-0.9v-8.3h0.9v3.1
			c0.7-0.7,1.3-1,2.1-1c1.1,0,1.7,0.7,1.7,2.1V242.8z"/>
		<path class="st6" d="M327.5,242.5c-0.6,0.3-1.2,0.4-1.8,0.4c-1.1,0-1.6-0.6-1.6-1.7v-3.7h-1.2v-0.8h1.2V235h0.9v1.7h2.1v0.8h-2.1
			v3.5c0,0.4,0.1,0.7,0.2,0.9s0.4,0.3,0.7,0.3c0.5,0,1-0.1,1.5-0.3L327.5,242.5z"/>
		<path class="st6" d="M333.1,242.8h-0.9v-5.3h-1.8v-0.8h2.7V242.8z M332.6,234.3c0.2,0,0.3,0.1,0.4,0.2s0.2,0.3,0.2,0.4
			c0,0.2-0.1,0.3-0.2,0.5s-0.3,0.2-0.4,0.2c-0.2,0-0.3-0.1-0.4-0.2s-0.2-0.3-0.2-0.4s0.1-0.3,0.2-0.4S332.5,234.3,332.6,234.3z"/>
		<path class="st6" d="M342.3,242.8h-0.9v-4c0-1-0.2-1.5-0.5-1.5c-0.2,0-0.4,0.2-0.6,0.5s-0.3,0.5-0.3,0.6v4.4H339v-4
			c0-1-0.2-1.5-0.5-1.5c-0.2,0-0.4,0.2-0.6,0.5s-0.3,0.5-0.3,0.6v4.4h-0.9v-6.1h0.9v0.9c0.2-0.3,0.4-0.6,0.6-0.8s0.5-0.3,0.7-0.3
			c0.2,0,0.5,0.1,0.7,0.3s0.3,0.5,0.4,0.8c0.2-0.3,0.4-0.6,0.6-0.8s0.5-0.3,0.7-0.3c0.7,0,1.1,0.7,1.1,2V242.8z"/>
		<path class="st6" d="M349.2,239.7H345c0,0.7,0.2,1.3,0.6,1.7s0.9,0.7,1.5,0.7c0.6,0,1.1-0.1,1.7-0.3l0.2,0.7
			c-0.5,0.2-1.2,0.4-1.9,0.4c-0.9,0-1.6-0.3-2.2-0.9s-0.8-1.4-0.8-2.4c0-1,0.2-1.7,0.7-2.3s1.1-0.9,1.9-0.9c0.7,0,1.3,0.3,1.8,0.8
			s0.7,1.2,0.7,2.1V239.7z M348.2,239c0-0.5-0.1-0.9-0.4-1.2s-0.6-0.5-1-0.5c-0.5,0-0.9,0.2-1.2,0.5s-0.5,0.7-0.5,1.2H348.2z"/>
		<path class="st6" d="M363.4,242.6c-0.5,0.2-1.1,0.4-1.8,0.4c-1,0-1.7-0.3-2.3-0.9s-0.9-1.4-0.9-2.3s0.3-1.7,0.9-2.3
			s1.3-0.9,2.3-0.9c0.6,0,1.2,0.1,1.8,0.3l-0.2,0.8c-0.6-0.2-1.1-0.3-1.5-0.3c-0.7,0-1.2,0.2-1.6,0.7s-0.6,1-0.6,1.8
			c0,0.7,0.2,1.3,0.6,1.7s0.9,0.7,1.6,0.7c0.5,0,1-0.1,1.6-0.3L363.4,242.6z"/>
		<path class="st6" d="M368.2,236.5c0.8,0,1.5,0.3,2,0.9s0.7,1.4,0.7,2.3c0,1-0.2,1.7-0.7,2.3s-1.2,0.9-2,0.9c-0.8,0-1.5-0.3-2-0.9
			s-0.7-1.4-0.7-2.3c0-1,0.2-1.7,0.7-2.3S367.4,236.5,368.2,236.5z M368.2,242.1c0.6,0,1-0.2,1.3-0.7s0.5-1,0.5-1.7
			c0-0.7-0.2-1.3-0.5-1.7s-0.8-0.7-1.3-0.7c-0.6,0-1,0.2-1.3,0.7s-0.5,1-0.5,1.7c0,0.7,0.2,1.3,0.5,1.7S367.7,242.1,368.2,242.1z"/>
		<path class="st6" d="M374,237.4c0.2-0.3,0.5-0.5,0.8-0.7s0.7-0.3,1.1-0.3c0.7,0,1.3,0.3,1.7,0.9s0.6,1.3,0.6,2.3
			c0,0.9-0.2,1.7-0.6,2.3s-1,0.9-1.7,0.9c-0.4,0-0.7-0.1-1.1-0.3s-0.6-0.4-0.8-0.8v3.3h-0.9v-8.5h0.9V237.4z M374,238.4v2.5
			c0.2,0.3,0.4,0.6,0.7,0.9s0.6,0.3,0.9,0.3c0.5,0,0.9-0.2,1.2-0.7s0.4-1,0.4-1.7c0-0.7-0.1-1.3-0.4-1.7s-0.7-0.7-1.2-0.7
			C375,237.3,374.5,237.6,374,238.4z"/>
		<path class="st6" d="M385.3,236.7l-2.3,6.1c-0.3,0.9-0.7,1.5-1,1.9s-0.7,0.5-1.1,0.5c-0.4,0-0.7-0.1-1.1-0.2l0.2-0.7
			c0.3,0.1,0.6,0.1,0.8,0.1c0.3,0,0.6-0.1,0.8-0.4s0.4-0.7,0.6-1.2l-2.3-6.1h1l1.7,4.9l1.7-4.9H385.3z"/>
		<path class="st6" d="M390.7,242.8h-0.9v-5.3H388v-0.8h2.7V242.8z M390.2,234.3c0.2,0,0.3,0.1,0.4,0.2s0.2,0.3,0.2,0.4
			c0,0.2-0.1,0.3-0.2,0.5s-0.3,0.2-0.4,0.2c-0.2,0-0.3-0.1-0.4-0.2s-0.2-0.3-0.2-0.4s0.1-0.3,0.2-0.4S390.1,234.3,390.2,234.3z"/>
		<path class="st6" d="M399.4,242.8h-0.9v-3.9c0-0.5-0.1-0.9-0.3-1.2s-0.4-0.4-0.8-0.4c-0.6,0-1.2,0.3-1.8,1v4.4h-0.9v-6.1h0.9v0.9
			c0.7-0.7,1.3-1,2.1-1c1.1,0,1.7,0.7,1.7,2.1V242.8z"/>
		<path class="st6" d="M403.6,240.5c-0.6,0.3-0.9,0.5-0.9,0.7c0,0.1,0.1,0.2,0.2,0.3s0.3,0.1,0.5,0.1l2.1-0.1c0.5,0,0.9,0.1,1.1,0.4
			s0.4,0.6,0.4,1c0,0.7-0.3,1.2-0.9,1.7s-1.3,0.6-2.2,0.6c-0.7,0-1.2-0.1-1.7-0.4s-0.6-0.6-0.6-1.1c0-0.5,0.3-0.9,1-1.2
			c-0.6-0.3-0.8-0.6-0.8-0.9c0-0.4,0.4-0.8,1.1-1.2c-0.3-0.2-0.6-0.5-0.8-0.8s-0.3-0.7-0.3-1c0-0.6,0.2-1,0.6-1.4s0.9-0.6,1.5-0.6
			c0.4,0,0.8,0.1,1.1,0.3l1.8-0.3v0.9h-1.2c0.2,0.3,0.3,0.7,0.3,1.1c0,0.6-0.2,1-0.6,1.4s-0.9,0.6-1.5,0.6
			C403.8,240.5,403.7,240.5,403.6,240.5z M404,244.5c0.6,0,1.1-0.1,1.5-0.4s0.6-0.6,0.6-1c0-0.4-0.3-0.6-0.9-0.6c-0.2,0-0.5,0-1,0
			c-0.3,0-0.6,0-0.7,0c-0.1,0-0.2,0.1-0.4,0.2s-0.3,0.3-0.4,0.4s-0.1,0.3-0.1,0.4c0,0.2,0.1,0.4,0.4,0.6S403.6,244.5,404,244.5z
			 M404,239.8c0.3,0,0.6-0.1,0.8-0.3s0.3-0.5,0.3-0.9c0-0.4-0.1-0.7-0.3-0.9s-0.5-0.3-0.8-0.3c-0.3,0-0.6,0.1-0.8,0.3
			s-0.3,0.5-0.3,0.9c0,0.4,0.1,0.7,0.3,0.9S403.6,239.8,404,239.8z"/>
		<path class="st6" d="M417.2,237.4c0.2-0.3,0.5-0.5,0.8-0.7s0.7-0.3,1.1-0.3c0.7,0,1.3,0.3,1.7,0.9s0.6,1.3,0.6,2.2
			c0,0.9-0.2,1.7-0.6,2.4s-1,0.9-1.7,0.9c-0.4,0-0.7-0.1-1.1-0.3s-0.6-0.4-0.8-0.8v0.9h-0.9v-8.3h0.9V237.4z M417.2,238.4v2.5
			c0.2,0.3,0.4,0.6,0.7,0.9s0.6,0.3,0.9,0.3c0.5,0,0.9-0.2,1.2-0.7s0.4-1,0.4-1.7c0-0.7-0.1-1.3-0.4-1.7s-0.7-0.7-1.2-0.7
			C418.2,237.3,417.7,237.6,417.2,238.4z"/>
		<path class="st6" d="M428.4,242.8h-0.9c-0.1-0.2-0.1-0.6-0.1-1c-0.5,0.8-1.2,1.1-2.1,1.1c-0.5,0-0.9-0.2-1.2-0.5s-0.5-0.7-0.5-1.2
			c0-0.3,0.1-0.6,0.2-0.8s0.3-0.4,0.5-0.6s0.5-0.3,0.9-0.4s0.7-0.2,1.2-0.2l1-0.1v-0.3c0-1-0.5-1.6-1.5-1.6c-0.2,0-0.5,0-0.9,0.1
			s-0.7,0.2-0.9,0.4l-0.2-0.7c0.8-0.4,1.6-0.6,2.3-0.6c1.4,0,2.1,0.7,2.1,2.2v2.6C428.2,241.9,428.3,242.3,428.4,242.8z
			 M427.3,240.9v-1.1c-0.8,0.1-1.4,0.1-1.7,0.2s-0.6,0.2-0.8,0.4s-0.3,0.4-0.3,0.7c0,0.3,0.1,0.5,0.3,0.7s0.4,0.3,0.7,0.3
			c0.3,0,0.6-0.1,1-0.3S427.1,241.3,427.3,240.9z"/>
		<path class="st6" d="M435.4,242.6c-0.5,0.2-1.1,0.4-1.8,0.4c-1,0-1.7-0.3-2.3-0.9s-0.9-1.4-0.9-2.3s0.3-1.7,0.9-2.3
			s1.3-0.9,2.3-0.9c0.6,0,1.2,0.1,1.8,0.3l-0.2,0.8c-0.6-0.2-1.1-0.3-1.5-0.3c-0.7,0-1.2,0.2-1.6,0.7s-0.6,1-0.6,1.8
			c0,0.7,0.2,1.3,0.6,1.7s0.9,0.7,1.6,0.7c0.5,0,1-0.1,1.6-0.3L435.4,242.6z"/>
		<path class="st6" d="M443.2,242.8H442l-2.6-3l-0.6,0.5v2.5h-0.9v-8.3h0.9v4.7l2.9-2.6h1.2l-2.8,2.5L443.2,242.8z"/>
		<path class="st6" d="M457.2,242.8h-0.9c-0.1-0.2-0.1-0.6-0.1-1c-0.5,0.8-1.2,1.1-2.1,1.1c-0.5,0-0.9-0.2-1.2-0.5s-0.5-0.7-0.5-1.2
			c0-0.3,0.1-0.6,0.2-0.8s0.3-0.4,0.5-0.6s0.5-0.3,0.9-0.4s0.7-0.2,1.2-0.2l1-0.1v-0.3c0-1-0.5-1.6-1.5-1.6c-0.2,0-0.5,0-0.9,0.1
			s-0.7,0.2-0.9,0.4l-0.2-0.7c0.8-0.4,1.6-0.6,2.3-0.6c1.4,0,2.1,0.7,2.1,2.2v2.6C457,241.9,457.1,242.3,457.2,242.8z M456.1,240.9
			v-1.1c-0.8,0.1-1.4,0.1-1.7,0.2s-0.6,0.2-0.8,0.4s-0.3,0.4-0.3,0.7c0,0.3,0.1,0.5,0.3,0.7s0.4,0.3,0.7,0.3c0.3,0,0.6-0.1,1-0.3
			S455.9,241.3,456.1,240.9z"/>
		<path class="st6" d="M464.2,242.8h-0.9v-3.9c0-0.5-0.1-0.9-0.3-1.2s-0.4-0.4-0.8-0.4c-0.6,0-1.2,0.3-1.8,1v4.4h-0.9v-6.1h0.9v0.9
			c0.7-0.7,1.3-1,2.1-1c1.1,0,1.7,0.7,1.7,2.1V242.8z"/>
		<path class="st6" d="M471.4,242.8h-0.9v-0.9c-0.2,0.3-0.5,0.5-0.8,0.7s-0.7,0.3-1.1,0.3c-0.7,0-1.3-0.3-1.7-0.9s-0.6-1.4-0.6-2.4
			c0-0.9,0.2-1.6,0.6-2.2s1-0.9,1.7-0.9c0.8,0,1.4,0.3,1.9,0.9v-3h0.9V242.8z M470.5,240.9v-2.5c-0.4-0.7-1-1.1-1.6-1.1
			c-0.5,0-0.9,0.2-1.2,0.7s-0.4,1-0.4,1.7c0,0.7,0.1,1.3,0.4,1.7s0.7,0.7,1.1,0.7c0.2,0,0.5-0.1,0.7-0.2s0.5-0.3,0.7-0.6
			S470.5,240.9,470.5,240.9z"/>
		<path class="st6" d="M485.9,234.6l-0.2,0.7c-0.4-0.1-0.8-0.2-1.2-0.2c-0.3,0-0.6,0.1-0.7,0.3s-0.2,0.6-0.2,1.1v0.1h2.1v0.8h-2.1
			v5.3h-0.9v-5.3h-1.5v-0.8h1.5v-0.2c0-0.8,0.1-1.3,0.4-1.6s0.7-0.5,1.4-0.5C484.9,234.3,485.4,234.4,485.9,234.6z"/>
		<path class="st6" d="M490.7,236.5c0.8,0,1.5,0.3,2,0.9s0.7,1.4,0.7,2.3c0,1-0.2,1.7-0.7,2.3s-1.2,0.9-2,0.9c-0.8,0-1.5-0.3-2-0.9
			s-0.7-1.4-0.7-2.3c0-1,0.2-1.7,0.7-2.3S489.8,236.5,490.7,236.5z M490.7,242.1c0.6,0,1-0.2,1.3-0.7s0.5-1,0.5-1.7
			c0-0.7-0.2-1.3-0.5-1.7s-0.8-0.7-1.3-0.7c-0.6,0-1,0.2-1.3,0.7s-0.5,1-0.5,1.7c0,0.7,0.2,1.3,0.5,1.7S490.1,242.1,490.7,242.1z"/>
		<path class="st6" d="M500.3,236.8l-0.4,0.9c-0.4-0.2-0.8-0.3-1-0.3c-0.3,0-0.5,0.1-0.8,0.2s-0.5,0.4-0.7,0.7s-0.3,0.4-0.3,0.5v3.9
			h-0.9v-6.1h0.9v1.2c0.5-0.9,1.1-1.4,1.9-1.4C499.4,236.5,499.9,236.6,500.3,236.8z"/>
		<path class="st6" d="M507.5,242.5c-0.6,0.3-1.2,0.4-1.8,0.4c-1.1,0-1.6-0.6-1.6-1.7v-3.7h-1.2v-0.8h1.2V235h0.9v1.7h2.1v0.8h-2.1
			v3.5c0,0.4,0.1,0.7,0.2,0.9s0.4,0.3,0.7,0.3c0.5,0,1-0.1,1.5-0.3L507.5,242.5z"/>
		<path class="st6" d="M514.6,242.8h-0.9v-3.9c0-0.5-0.1-0.9-0.3-1.2s-0.4-0.4-0.8-0.4c-0.6,0-1.2,0.3-1.8,1v4.4h-0.9v-8.3h0.9v3.1
			c0.7-0.7,1.3-1,2.1-1c1.1,0,1.7,0.7,1.7,2.1V242.8z"/>
		<path class="st6" d="M519.4,241.4c0.2,0,0.4,0.1,0.5,0.2s0.2,0.3,0.2,0.5c0,0.2-0.1,0.4-0.2,0.5s-0.3,0.2-0.5,0.2
			c-0.2,0-0.4-0.1-0.5-0.2s-0.2-0.3-0.2-0.5s0.1-0.4,0.2-0.5S519.2,241.4,519.4,241.4z"/>
		<path class="st6" d="M526.1,235.9l-0.2,1.6h-0.5l-0.2-1.6v-1.4h0.9V235.9z M528.2,235.9l-0.2,1.6h-0.5l-0.2-1.6v-1.4h0.9V235.9z"
			/>
		<path class="st6" d="M543.2,242.9h-0.9l-3.6-8.6h0.9L543.2,242.9z"/>
	</g>
</g>
</svg>
